<mxfile host="app.diagrams.net" modified="2021-04-29T03:32:38.173Z" agent="5.0 (Windows NT 10.0; Win64; x64) AppleWebKit/537.36 (KHTML, like Gecko) Chrome/90.0.4430.85 Safari/537.36" etag="ae2S5zJdVsXdSM_JtU_1" version="14.6.6" type="github" pages="3">
  <diagram id="8LLgx4vdBzQ1kD5CrxiD" name="Page-2">
    <mxGraphModel dx="1310" dy="1706" grid="1" gridSize="10" guides="1" tooltips="1" connect="1" arrows="1" fold="1" page="1" pageScale="1" pageWidth="827" pageHeight="1169" math="0" shadow="0">
      <root>
        <mxCell id="HQGPUMjog5LNMLzuyo_q-0" />
        <mxCell id="HQGPUMjog5LNMLzuyo_q-1" parent="HQGPUMjog5LNMLzuyo_q-0" />
        <mxCell id="HQGPUMjog5LNMLzuyo_q-2" value="&lt;p style=&quot;margin: 0px ; margin-top: 4px ; text-align: center&quot;&gt;&lt;i&gt;&amp;lt;&amp;lt;Interface&amp;gt;&amp;gt;&lt;/i&gt;&lt;br&gt;&lt;b&gt;登录授权接口&lt;/b&gt;&lt;/p&gt;&lt;hr size=&quot;1&quot;&gt;&lt;p style=&quot;margin: 0px ; margin-left: 4px&quot;&gt;+ auth(String): JWTToken&lt;br&gt;&lt;/p&gt;" style="verticalAlign=top;align=left;overflow=fill;fontSize=12;fontFamily=Helvetica;html=1;" parent="HQGPUMjog5LNMLzuyo_q-1" vertex="1">
          <mxGeometry x="120" y="-280" width="190" height="110" as="geometry" />
        </mxCell>
        <mxCell id="HQGPUMjog5LNMLzuyo_q-31" value="登录认证-Feature" style="shape=module;align=left;spacingLeft=20;align=center;verticalAlign=top;fillColor=#dae8fc;strokeColor=#6c8ebf;" parent="HQGPUMjog5LNMLzuyo_q-1" vertex="1">
          <mxGeometry x="60" y="-90" width="1090" height="510" as="geometry" />
        </mxCell>
        <mxCell id="HQGPUMjog5LNMLzuyo_q-32" value="CheckIdentifyService" style="swimlane;fontStyle=1;align=center;verticalAlign=top;childLayout=stackLayout;horizontal=1;startSize=26;horizontalStack=0;resizeParent=1;resizeParentMax=0;resizeLast=0;collapsible=1;marginBottom=0;swimlaneFillColor=#ffffff;" parent="HQGPUMjog5LNMLzuyo_q-1" vertex="1">
          <mxGeometry x="150" y="230" width="215" height="138" as="geometry" />
        </mxCell>
        <mxCell id="HQGPUMjog5LNMLzuyo_q-33" value="+ userService: UserService" style="text;strokeColor=none;fillColor=none;align=left;verticalAlign=top;spacingLeft=4;spacingRight=4;overflow=hidden;rotatable=0;points=[[0,0.5],[1,0.5]];portConstraint=eastwest;" parent="HQGPUMjog5LNMLzuyo_q-32" vertex="1">
          <mxGeometry y="26" width="215" height="26" as="geometry" />
        </mxCell>
        <mxCell id="HQGPUMjog5LNMLzuyo_q-34" value="" style="line;strokeWidth=1;fillColor=none;align=left;verticalAlign=middle;spacingTop=-1;spacingLeft=3;spacingRight=3;rotatable=0;labelPosition=right;points=[];portConstraint=eastwest;" parent="HQGPUMjog5LNMLzuyo_q-32" vertex="1">
          <mxGeometry y="52" width="215" height="8" as="geometry" />
        </mxCell>
        <mxCell id="HQGPUMjog5LNMLzuyo_q-35" value="+ confirm(AuthAndUserInfo): Boolean" style="text;strokeColor=none;fillColor=none;align=left;verticalAlign=top;spacingLeft=4;spacingRight=4;overflow=hidden;rotatable=0;points=[[0,0.5],[1,0.5]];portConstraint=eastwest;" parent="HQGPUMjog5LNMLzuyo_q-32" vertex="1">
          <mxGeometry y="60" width="215" height="26" as="geometry" />
        </mxCell>
        <mxCell id="HQGPUMjog5LNMLzuyo_q-36" value="+ accept(AuthAndUserInfo): Boolean" style="text;strokeColor=none;fillColor=none;align=left;verticalAlign=top;spacingLeft=4;spacingRight=4;overflow=hidden;rotatable=0;points=[[0,0.5],[1,0.5]];portConstraint=eastwest;" parent="HQGPUMjog5LNMLzuyo_q-32" vertex="1">
          <mxGeometry y="86" width="215" height="26" as="geometry" />
        </mxCell>
        <mxCell id="HQGPUMjog5LNMLzuyo_q-37" value="+ reject(AuthAndUserInfo): Boolean" style="text;strokeColor=none;fillColor=none;align=left;verticalAlign=top;spacingLeft=4;spacingRight=4;overflow=hidden;rotatable=0;points=[[0,0.5],[1,0.5]];portConstraint=eastwest;" parent="HQGPUMjog5LNMLzuyo_q-32" vertex="1">
          <mxGeometry y="112" width="215" height="26" as="geometry" />
        </mxCell>
        <mxCell id="HQGPUMjog5LNMLzuyo_q-51" value="&lt;p style=&quot;margin: 0px ; margin-top: 4px ; text-align: center&quot;&gt;&lt;i&gt;&amp;lt;&amp;lt;Interface&amp;gt;&amp;gt;&lt;/i&gt;&lt;br&gt;&lt;b&gt;业务接口&lt;/b&gt;&lt;/p&gt;&lt;hr size=&quot;1&quot;&gt;&lt;p style=&quot;margin: 0px ; margin-left: 4px&quot;&gt;+ 新增电站(Type): Type&lt;br&gt;+ 删除电站(Type, Type): Type&lt;/p&gt;&lt;p style=&quot;margin: 0px ; margin-left: 4px&quot;&gt;+ 显示未审批通过的电站列表(Type, Type): Type&lt;/p&gt;&lt;p style=&quot;margin: 0px ; margin-left: 4px&quot;&gt;+ 显示审批意见(Type, Type): Type&lt;br&gt;+ 恢复收集电站历史列表(Type, Type): Type&lt;br&gt;&lt;/p&gt;&lt;p style=&quot;margin: 0px ; margin-left: 4px&quot;&gt;+ 上传图片(Type, Type): Type&lt;br&gt;&lt;/p&gt;&lt;p style=&quot;margin: 0px ; margin-left: 4px&quot;&gt;+ 自动保存(Type, Type): Type&lt;br&gt;&lt;/p&gt;&lt;p style=&quot;margin: 0px ; margin-left: 4px&quot;&gt;+ 提交表单(Type, Type): Type&lt;br&gt;&lt;/p&gt;" style="verticalAlign=top;align=left;overflow=fill;fontSize=12;fontFamily=Helvetica;html=1;" parent="HQGPUMjog5LNMLzuyo_q-1" vertex="1">
          <mxGeometry x="414" y="-340" width="286" height="170" as="geometry" />
        </mxCell>
        <mxCell id="HQGPUMjog5LNMLzuyo_q-52" value="&lt;p style=&quot;margin: 0px ; margin-top: 4px ; text-align: center&quot;&gt;&lt;i&gt;&amp;lt;&amp;lt;Interface&amp;gt;&amp;gt;&lt;/i&gt;&lt;br&gt;&lt;b&gt;cacheManager&lt;/b&gt;&lt;/p&gt;&lt;hr size=&quot;1&quot;&gt;&lt;p style=&quot;margin: 0px ; margin-left: 4px&quot;&gt;+ field1: Type&lt;br&gt;+ field2: Type&lt;/p&gt;&lt;hr size=&quot;1&quot;&gt;&lt;p style=&quot;margin: 0px ; margin-left: 4px&quot;&gt;+ method1(Type): Type&lt;br&gt;+ method2(Type, Type): Type&lt;/p&gt;" style="verticalAlign=top;align=left;overflow=fill;fontSize=12;fontFamily=Helvetica;html=1;" parent="HQGPUMjog5LNMLzuyo_q-1" vertex="1">
          <mxGeometry x="690" y="228" width="190" height="140" as="geometry" />
        </mxCell>
        <mxCell id="HQGPUMjog5LNMLzuyo_q-53" value="&lt;p style=&quot;margin: 0px ; margin-top: 4px ; text-align: center&quot;&gt;&lt;i&gt;&amp;lt;&amp;lt;Interface&amp;gt;&amp;gt;&lt;/i&gt;&lt;br&gt;&lt;b&gt;authorityRules&lt;/b&gt;&lt;/p&gt;&lt;hr size=&quot;1&quot;&gt;&lt;p style=&quot;margin: 0px ; margin-left: 4px&quot;&gt;+ field1: Type&lt;br&gt;+ field2: Type&lt;/p&gt;&lt;hr size=&quot;1&quot;&gt;&lt;p style=&quot;margin: 0px ; margin-left: 4px&quot;&gt;+ method1(Type): Type&lt;br&gt;+ method2(Type, Type): Type&lt;/p&gt;" style="verticalAlign=top;align=left;overflow=fill;fontSize=12;fontFamily=Helvetica;html=1;" parent="HQGPUMjog5LNMLzuyo_q-1" vertex="1">
          <mxGeometry x="930" y="220" width="190" height="140" as="geometry" />
        </mxCell>
        <mxCell id="HQGPUMjog5LNMLzuyo_q-61" value="&lt;p style=&quot;margin: 0px ; margin-top: 4px ; text-align: center&quot;&gt;&lt;i&gt;&amp;lt;&amp;lt;Interface&amp;gt;&amp;gt;&lt;/i&gt;&lt;br&gt;&lt;b&gt;电站信息管理-Feature&lt;/b&gt;&lt;/p&gt;&lt;hr size=&quot;1&quot;&gt;&lt;p style=&quot;margin: 0px ; margin-left: 4px&quot;&gt;+ field1: Type&lt;br&gt;+ field2: Type&lt;/p&gt;&lt;hr size=&quot;1&quot;&gt;&lt;p style=&quot;margin: 0px ; margin-left: 4px&quot;&gt;+ isPass(Type): Type&lt;br&gt;+ changeStatus(Type, Type): Type&lt;br&gt;&lt;/p&gt;&lt;p style=&quot;margin: 0px ; margin-left: 4px&quot;&gt;+ changeStatus(Type, Type): Type&lt;br&gt;&lt;/p&gt;&lt;p style=&quot;margin: 0px ; margin-left: 4px&quot;&gt;+ changeStatus(Type, Type): Type&lt;br&gt;&lt;/p&gt;&lt;p style=&quot;margin: 0px ; margin-left: 4px&quot;&gt;+ changeStatus(Type, Type): Type&lt;br&gt;&lt;/p&gt;" style="verticalAlign=top;align=left;overflow=fill;fontSize=12;fontFamily=Helvetica;html=1;" parent="HQGPUMjog5LNMLzuyo_q-1" vertex="1">
          <mxGeometry x="130" y="-40" width="210" height="170" as="geometry" />
        </mxCell>
        <mxCell id="HQGPUMjog5LNMLzuyo_q-67" value="&lt;p style=&quot;margin: 0px ; margin-top: 4px ; text-align: center&quot;&gt;&lt;i&gt;&amp;lt;&amp;lt;Interface&amp;gt;&amp;gt;&lt;/i&gt;&lt;br&gt;&lt;b&gt;文件上传下载-Feature&lt;/b&gt;&lt;/p&gt;&lt;hr size=&quot;1&quot;&gt;&lt;p style=&quot;margin: 0px ; margin-left: 4px&quot;&gt;+ field1: Type&lt;br&gt;+ field2: Type&lt;/p&gt;&lt;hr size=&quot;1&quot;&gt;&lt;p style=&quot;margin: 0px ; margin-left: 4px&quot;&gt;+ isPass(Type): Type&lt;br&gt;+ changeStatus(Type, Type): Type&lt;br&gt;&lt;/p&gt;&lt;p style=&quot;margin: 0px ; margin-left: 4px&quot;&gt;+ changeStatus(Type, Type): Type&lt;br&gt;&lt;/p&gt;&lt;p style=&quot;margin: 0px ; margin-left: 4px&quot;&gt;+ changeStatus(Type, Type): Type&lt;br&gt;&lt;/p&gt;&lt;p style=&quot;margin: 0px ; margin-left: 4px&quot;&gt;+ changeStatus(Type, Type): Type&lt;br&gt;&lt;/p&gt;" style="verticalAlign=top;align=left;overflow=fill;fontSize=12;fontFamily=Helvetica;html=1;" parent="HQGPUMjog5LNMLzuyo_q-1" vertex="1">
          <mxGeometry x="420" y="-40" width="210" height="170" as="geometry" />
        </mxCell>
        <mxCell id="HQGPUMjog5LNMLzuyo_q-69" value="电站表" style="swimlane;fontStyle=1;childLayout=stackLayout;horizontal=1;startSize=26;horizontalStack=0;resizeParent=1;resizeParentMax=0;resizeLast=0;collapsible=1;marginBottom=0;swimlaneFillColor=#ffffff;" parent="HQGPUMjog5LNMLzuyo_q-1" vertex="1">
          <mxGeometry x="700" y="-40" width="180" height="156" as="geometry" />
        </mxCell>
        <mxCell id="HQGPUMjog5LNMLzuyo_q-70" value="+ 基本信息: BasicStation" style="text;strokeColor=none;fillColor=none;align=left;verticalAlign=top;spacingLeft=4;spacingRight=4;overflow=hidden;rotatable=0;points=[[0,0.5],[1,0.5]];portConstraint=eastwest;" parent="HQGPUMjog5LNMLzuyo_q-69" vertex="1">
          <mxGeometry y="26" width="180" height="26" as="geometry" />
        </mxCell>
        <mxCell id="HQGPUMjog5LNMLzuyo_q-71" value="+ 组件: SolarPlugin" style="text;strokeColor=none;fillColor=none;align=left;verticalAlign=top;spacingLeft=4;spacingRight=4;overflow=hidden;rotatable=0;points=[[0,0.5],[1,0.5]];portConstraint=eastwest;" parent="HQGPUMjog5LNMLzuyo_q-69" vertex="1">
          <mxGeometry y="52" width="180" height="26" as="geometry" />
        </mxCell>
        <mxCell id="HQGPUMjog5LNMLzuyo_q-72" value="+ 逆变器: Inverter" style="text;strokeColor=none;fillColor=none;align=left;verticalAlign=top;spacingLeft=4;spacingRight=4;overflow=hidden;rotatable=0;points=[[0,0.5],[1,0.5]];portConstraint=eastwest;" parent="HQGPUMjog5LNMLzuyo_q-69" vertex="1">
          <mxGeometry y="78" width="180" height="26" as="geometry" />
        </mxCell>
        <mxCell id="HQGPUMjog5LNMLzuyo_q-73" value="+ 历史数据: PowerHistory" style="text;strokeColor=none;fillColor=none;align=left;verticalAlign=top;spacingLeft=4;spacingRight=4;overflow=hidden;rotatable=0;points=[[0,0.5],[1,0.5]];portConstraint=eastwest;" parent="HQGPUMjog5LNMLzuyo_q-69" vertex="1">
          <mxGeometry y="104" width="180" height="26" as="geometry" />
        </mxCell>
        <mxCell id="HQGPUMjog5LNMLzuyo_q-74" value="+ 运维数据: type" style="text;strokeColor=none;fillColor=none;align=left;verticalAlign=top;spacingLeft=4;spacingRight=4;overflow=hidden;rotatable=0;points=[[0,0.5],[1,0.5]];portConstraint=eastwest;" parent="HQGPUMjog5LNMLzuyo_q-69" vertex="1">
          <mxGeometry y="130" width="180" height="26" as="geometry" />
        </mxCell>
        <mxCell id="HQGPUMjog5LNMLzuyo_q-39" value="AuthAndUserInfo" style="swimlane;fontStyle=1;align=center;verticalAlign=top;childLayout=stackLayout;horizontal=1;startSize=26;horizontalStack=0;resizeParent=1;resizeParentMax=0;resizeLast=0;collapsible=1;marginBottom=0;fillColor=#FFFFFF;swimlaneFillColor=#ffffff;" parent="HQGPUMjog5LNMLzuyo_q-1" vertex="1">
          <mxGeometry x="425" y="220" width="210" height="190" as="geometry" />
        </mxCell>
        <mxCell id="HQGPUMjog5LNMLzuyo_q-40" value="+ authCode: String" style="text;strokeColor=none;fillColor=none;align=left;verticalAlign=top;spacingLeft=4;spacingRight=4;overflow=hidden;rotatable=0;points=[[0,0.5],[1,0.5]];portConstraint=eastwest;" parent="HQGPUMjog5LNMLzuyo_q-39" vertex="1">
          <mxGeometry y="26" width="210" height="26" as="geometry" />
        </mxCell>
        <mxCell id="HQGPUMjog5LNMLzuyo_q-43" value="+ userName: String" style="text;strokeColor=none;fillColor=none;align=left;verticalAlign=top;spacingLeft=4;spacingRight=4;overflow=hidden;rotatable=0;points=[[0,0.5],[1,0.5]];portConstraint=eastwest;" parent="HQGPUMjog5LNMLzuyo_q-39" vertex="1">
          <mxGeometry y="52" width="210" height="26" as="geometry" />
        </mxCell>
        <mxCell id="HQGPUMjog5LNMLzuyo_q-44" value="+ userId: String" style="text;align=left;verticalAlign=top;spacingLeft=4;spacingRight=4;overflow=hidden;rotatable=0;points=[[0,0.5],[1,0.5]];portConstraint=eastwest;rounded=0;" parent="HQGPUMjog5LNMLzuyo_q-39" vertex="1">
          <mxGeometry y="78" width="210" height="26" as="geometry" />
        </mxCell>
        <mxCell id="HQGPUMjog5LNMLzuyo_q-46" value="+ phoneNumber: String" style="text;strokeColor=none;fillColor=none;align=left;verticalAlign=top;spacingLeft=4;spacingRight=4;overflow=hidden;rotatable=0;points=[[0,0.5],[1,0.5]];portConstraint=eastwest;" parent="HQGPUMjog5LNMLzuyo_q-39" vertex="1">
          <mxGeometry y="104" width="210" height="26" as="geometry" />
        </mxCell>
        <mxCell id="HQGPUMjog5LNMLzuyo_q-41" value="" style="line;strokeWidth=1;fillColor=none;align=left;verticalAlign=middle;spacingTop=-1;spacingLeft=3;spacingRight=3;rotatable=0;labelPosition=right;points=[];portConstraint=eastwest;" parent="HQGPUMjog5LNMLzuyo_q-39" vertex="1">
          <mxGeometry y="130" width="210" height="8" as="geometry" />
        </mxCell>
        <mxCell id="HQGPUMjog5LNMLzuyo_q-42" value="+ generateAuthCode(String): String" style="text;strokeColor=none;fillColor=none;align=left;verticalAlign=top;spacingLeft=4;spacingRight=4;overflow=hidden;rotatable=0;points=[[0,0.5],[1,0.5]];portConstraint=eastwest;" parent="HQGPUMjog5LNMLzuyo_q-39" vertex="1">
          <mxGeometry y="138" width="210" height="26" as="geometry" />
        </mxCell>
        <mxCell id="HQGPUMjog5LNMLzuyo_q-45" value="+ authCodeValueOf(String): String" style="text;strokeColor=none;fillColor=none;align=left;verticalAlign=top;spacingLeft=4;spacingRight=4;overflow=hidden;rotatable=0;points=[[0,0.5],[1,0.5]];portConstraint=eastwest;" parent="HQGPUMjog5LNMLzuyo_q-39" vertex="1">
          <mxGeometry y="164" width="210" height="26" as="geometry" />
        </mxCell>
        <mxCell id="TmlSuqyC0zM2CFqLp6od-106" value="pbb_log" style="shape=table;startSize=30;container=1;collapsible=1;childLayout=tableLayout;fixedRows=1;rowLines=0;fontStyle=1;align=center;resizeLast=1;" parent="HQGPUMjog5LNMLzuyo_q-1" vertex="1">
          <mxGeometry x="565" y="435" width="160" height="155" as="geometry" />
        </mxCell>
        <mxCell id="TmlSuqyC0zM2CFqLp6od-110" value="" style="shape=partialRectangle;collapsible=0;dropTarget=0;pointerEvents=0;fillColor=none;top=0;left=0;bottom=1;right=0;points=[[0,0.5],[1,0.5]];portConstraint=eastwest;" parent="TmlSuqyC0zM2CFqLp6od-106" vertex="1">
          <mxGeometry y="30" width="160" height="30" as="geometry" />
        </mxCell>
        <mxCell id="TmlSuqyC0zM2CFqLp6od-111" value="PK" style="shape=partialRectangle;connectable=0;fillColor=none;top=0;left=0;bottom=0;right=0;fontStyle=1;overflow=hidden;" parent="TmlSuqyC0zM2CFqLp6od-110" vertex="1">
          <mxGeometry width="50" height="30" as="geometry" />
        </mxCell>
        <mxCell id="TmlSuqyC0zM2CFqLp6od-112" value="pbb_log_id" style="shape=partialRectangle;connectable=0;fillColor=none;top=0;left=0;bottom=0;right=0;align=left;spacingLeft=6;fontStyle=5;overflow=hidden;" parent="TmlSuqyC0zM2CFqLp6od-110" vertex="1">
          <mxGeometry x="50" width="110" height="30" as="geometry" />
        </mxCell>
        <mxCell id="StMam2Ljch9In4MUhCjx-13" value="" style="shape=partialRectangle;collapsible=0;dropTarget=0;pointerEvents=0;fillColor=none;top=0;left=0;bottom=1;right=0;points=[[0,0.5],[1,0.5]];portConstraint=eastwest;" parent="TmlSuqyC0zM2CFqLp6od-106" vertex="1">
          <mxGeometry y="60" width="160" height="30" as="geometry" />
        </mxCell>
        <mxCell id="StMam2Ljch9In4MUhCjx-14" value="PK" style="shape=partialRectangle;connectable=0;fillColor=none;top=0;left=0;bottom=0;right=0;fontStyle=1;overflow=hidden;" parent="StMam2Ljch9In4MUhCjx-13" vertex="1">
          <mxGeometry width="50" height="30" as="geometry" />
        </mxCell>
        <mxCell id="StMam2Ljch9In4MUhCjx-15" value="pbb_station_id" style="shape=partialRectangle;connectable=0;fillColor=none;top=0;left=0;bottom=0;right=0;align=left;spacingLeft=6;fontStyle=5;overflow=hidden;" parent="StMam2Ljch9In4MUhCjx-13" vertex="1">
          <mxGeometry x="50" width="110" height="30" as="geometry" />
        </mxCell>
        <mxCell id="TmlSuqyC0zM2CFqLp6od-113" value="" style="shape=partialRectangle;collapsible=0;dropTarget=0;pointerEvents=0;fillColor=none;top=0;left=0;bottom=0;right=0;points=[[0,0.5],[1,0.5]];portConstraint=eastwest;" parent="TmlSuqyC0zM2CFqLp6od-106" vertex="1">
          <mxGeometry y="90" width="160" height="30" as="geometry" />
        </mxCell>
        <mxCell id="TmlSuqyC0zM2CFqLp6od-114" value="" style="shape=partialRectangle;connectable=0;fillColor=none;top=0;left=0;bottom=0;right=0;editable=1;overflow=hidden;" parent="TmlSuqyC0zM2CFqLp6od-113" vertex="1">
          <mxGeometry width="50" height="30" as="geometry" />
        </mxCell>
        <mxCell id="TmlSuqyC0zM2CFqLp6od-115" value="phone" style="shape=partialRectangle;connectable=0;fillColor=none;top=0;left=0;bottom=0;right=0;align=left;spacingLeft=6;overflow=hidden;" parent="TmlSuqyC0zM2CFqLp6od-113" vertex="1">
          <mxGeometry x="50" width="110" height="30" as="geometry" />
        </mxCell>
        <mxCell id="TmlSuqyC0zM2CFqLp6od-12" value="" style="shape=partialRectangle;collapsible=0;dropTarget=0;pointerEvents=0;fillColor=none;top=0;left=0;bottom=0;right=0;points=[[0,0.5],[1,0.5]];portConstraint=eastwest;" parent="TmlSuqyC0zM2CFqLp6od-106" vertex="1">
          <mxGeometry y="120" width="160" height="30" as="geometry" />
        </mxCell>
        <mxCell id="TmlSuqyC0zM2CFqLp6od-13" value="" style="shape=partialRectangle;connectable=0;fillColor=none;top=0;left=0;bottom=0;right=0;editable=1;overflow=hidden;" parent="TmlSuqyC0zM2CFqLp6od-12" vertex="1">
          <mxGeometry width="50" height="30" as="geometry" />
        </mxCell>
        <mxCell id="TmlSuqyC0zM2CFqLp6od-14" value="status" style="shape=partialRectangle;connectable=0;fillColor=none;top=0;left=0;bottom=0;right=0;align=left;spacingLeft=6;overflow=hidden;" parent="TmlSuqyC0zM2CFqLp6od-12" vertex="1">
          <mxGeometry x="50" width="110" height="30" as="geometry" />
        </mxCell>
        <mxCell id="StMam2Ljch9In4MUhCjx-16" style="edgeStyle=orthogonalEdgeStyle;rounded=0;orthogonalLoop=1;jettySize=auto;html=1;exitX=0.5;exitY=0;exitDx=0;exitDy=0;" parent="HQGPUMjog5LNMLzuyo_q-1" source="TmlSuqyC0zM2CFqLp6od-5" edge="1">
          <mxGeometry relative="1" as="geometry">
            <mxPoint x="645" y="589" as="targetPoint" />
          </mxGeometry>
        </mxCell>
        <mxCell id="TmlSuqyC0zM2CFqLp6od-5" value="pbb_station" style="shape=table;startSize=30;container=1;collapsible=1;childLayout=tableLayout;fixedRows=1;rowLines=0;fontStyle=1;align=center;resizeLast=1;" parent="HQGPUMjog5LNMLzuyo_q-1" vertex="1">
          <mxGeometry x="560" y="630" width="170" height="150" as="geometry" />
        </mxCell>
        <mxCell id="TmlSuqyC0zM2CFqLp6od-9" value="" style="shape=partialRectangle;collapsible=0;dropTarget=0;pointerEvents=0;fillColor=none;top=0;left=0;bottom=1;right=0;points=[[0,0.5],[1,0.5]];portConstraint=eastwest;" parent="TmlSuqyC0zM2CFqLp6od-5" vertex="1">
          <mxGeometry y="30" width="170" height="30" as="geometry" />
        </mxCell>
        <mxCell id="TmlSuqyC0zM2CFqLp6od-10" value="PK" style="shape=partialRectangle;connectable=0;fillColor=none;top=0;left=0;bottom=0;right=0;fontStyle=1;overflow=hidden;container=0;" parent="TmlSuqyC0zM2CFqLp6od-9" vertex="1">
          <mxGeometry width="40" height="30" as="geometry" />
        </mxCell>
        <mxCell id="TmlSuqyC0zM2CFqLp6od-11" value="pbb_station_id" style="shape=partialRectangle;connectable=0;fillColor=none;top=0;left=0;bottom=0;right=0;align=left;spacingLeft=6;fontStyle=5;overflow=hidden;container=0;" parent="TmlSuqyC0zM2CFqLp6od-9" vertex="1">
          <mxGeometry x="40" width="130" height="30" as="geometry" />
        </mxCell>
        <mxCell id="StMam2Ljch9In4MUhCjx-10" value="" style="shape=partialRectangle;collapsible=0;dropTarget=0;pointerEvents=0;fillColor=none;top=0;left=0;bottom=1;right=0;points=[[0,0.5],[1,0.5]];portConstraint=eastwest;" parent="TmlSuqyC0zM2CFqLp6od-5" vertex="1">
          <mxGeometry y="60" width="170" height="30" as="geometry" />
        </mxCell>
        <mxCell id="StMam2Ljch9In4MUhCjx-11" value="PK" style="shape=partialRectangle;connectable=0;fillColor=none;top=0;left=0;bottom=0;right=0;fontStyle=1;overflow=hidden;container=0;" parent="StMam2Ljch9In4MUhCjx-10" vertex="1">
          <mxGeometry width="40" height="30" as="geometry" />
        </mxCell>
        <mxCell id="StMam2Ljch9In4MUhCjx-12" value="pbb_simulation_id" style="shape=partialRectangle;connectable=0;fillColor=none;top=0;left=0;bottom=0;right=0;align=left;spacingLeft=6;fontStyle=5;overflow=hidden;container=0;" parent="StMam2Ljch9In4MUhCjx-10" vertex="1">
          <mxGeometry x="40" width="130" height="30" as="geometry" />
        </mxCell>
        <mxCell id="TmlSuqyC0zM2CFqLp6od-33" value="" style="shape=partialRectangle;collapsible=0;dropTarget=0;pointerEvents=0;fillColor=none;top=0;left=0;bottom=0;right=0;points=[[0,0.5],[1,0.5]];portConstraint=eastwest;" parent="TmlSuqyC0zM2CFqLp6od-5" vertex="1">
          <mxGeometry y="90" width="170" height="30" as="geometry" />
        </mxCell>
        <mxCell id="TmlSuqyC0zM2CFqLp6od-34" value="" style="shape=partialRectangle;connectable=0;fillColor=none;top=0;left=0;bottom=0;right=0;editable=1;overflow=hidden;container=0;" parent="TmlSuqyC0zM2CFqLp6od-33" vertex="1">
          <mxGeometry width="40" height="30" as="geometry" />
        </mxCell>
        <mxCell id="TmlSuqyC0zM2CFqLp6od-35" value="station_name" style="shape=partialRectangle;connectable=0;fillColor=none;top=0;left=0;bottom=0;right=0;align=left;spacingLeft=6;overflow=hidden;container=0;" parent="TmlSuqyC0zM2CFqLp6od-33" vertex="1">
          <mxGeometry x="40" width="130" height="30" as="geometry" />
        </mxCell>
        <mxCell id="TmlSuqyC0zM2CFqLp6od-36" value="" style="shape=partialRectangle;collapsible=0;dropTarget=0;pointerEvents=0;fillColor=none;top=0;left=0;bottom=0;right=0;points=[[0,0.5],[1,0.5]];portConstraint=eastwest;" parent="TmlSuqyC0zM2CFqLp6od-5" vertex="1">
          <mxGeometry y="120" width="170" height="30" as="geometry" />
        </mxCell>
        <mxCell id="TmlSuqyC0zM2CFqLp6od-37" value="" style="shape=partialRectangle;connectable=0;fillColor=none;top=0;left=0;bottom=0;right=0;editable=1;overflow=hidden;container=0;" parent="TmlSuqyC0zM2CFqLp6od-36" vertex="1">
          <mxGeometry width="40" height="30" as="geometry" />
        </mxCell>
        <mxCell id="TmlSuqyC0zM2CFqLp6od-38" value="station_no" style="shape=partialRectangle;connectable=0;fillColor=none;top=0;left=0;bottom=0;right=0;align=left;spacingLeft=6;overflow=hidden;container=0;" parent="TmlSuqyC0zM2CFqLp6od-36" vertex="1">
          <mxGeometry x="40" width="130" height="30" as="geometry" />
        </mxCell>
        <mxCell id="StMam2Ljch9In4MUhCjx-7" style="edgeStyle=orthogonalEdgeStyle;rounded=0;orthogonalLoop=1;jettySize=auto;html=1;exitX=0.5;exitY=0;exitDx=0;exitDy=0;entryX=0.453;entryY=1.033;entryDx=0;entryDy=0;entryPerimeter=0;" parent="HQGPUMjog5LNMLzuyo_q-1" source="TmlSuqyC0zM2CFqLp6od-39" target="TmlSuqyC0zM2CFqLp6od-75" edge="1">
          <mxGeometry relative="1" as="geometry" />
        </mxCell>
        <mxCell id="TmlSuqyC0zM2CFqLp6od-39" value="pbb_module" style="shape=table;startSize=26;container=1;collapsible=1;childLayout=tableLayout;fixedRows=1;rowLines=0;fontStyle=1;align=center;resizeLast=1;" parent="HQGPUMjog5LNMLzuyo_q-1" vertex="1">
          <mxGeometry x="390" y="1080" width="170" height="150" as="geometry" />
        </mxCell>
        <mxCell id="TmlSuqyC0zM2CFqLp6od-40" value="" style="shape=partialRectangle;collapsible=0;dropTarget=0;pointerEvents=0;fillColor=none;top=0;left=0;bottom=0;right=0;points=[[0,0.5],[1,0.5]];portConstraint=eastwest;" parent="TmlSuqyC0zM2CFqLp6od-39" vertex="1">
          <mxGeometry y="26" width="170" height="30" as="geometry" />
        </mxCell>
        <mxCell id="TmlSuqyC0zM2CFqLp6od-41" value="PK,FK1" style="shape=partialRectangle;connectable=0;fillColor=none;top=0;left=0;bottom=0;right=0;fontStyle=1;overflow=hidden;container=0;" parent="TmlSuqyC0zM2CFqLp6od-40" vertex="1">
          <mxGeometry width="50" height="30" as="geometry" />
        </mxCell>
        <mxCell id="TmlSuqyC0zM2CFqLp6od-42" value="pbb_module_id" style="shape=partialRectangle;connectable=0;fillColor=none;top=0;left=0;bottom=0;right=0;align=left;spacingLeft=6;fontStyle=5;overflow=hidden;container=0;" parent="TmlSuqyC0zM2CFqLp6od-40" vertex="1">
          <mxGeometry x="50" width="120" height="30" as="geometry" />
        </mxCell>
        <mxCell id="TmlSuqyC0zM2CFqLp6od-43" value="" style="shape=partialRectangle;collapsible=0;dropTarget=0;pointerEvents=0;fillColor=none;top=0;left=0;bottom=1;right=0;points=[[0,0.5],[1,0.5]];portConstraint=eastwest;" parent="TmlSuqyC0zM2CFqLp6od-39" vertex="1">
          <mxGeometry y="56" width="170" height="30" as="geometry" />
        </mxCell>
        <mxCell id="TmlSuqyC0zM2CFqLp6od-44" value="PK,FK2" style="shape=partialRectangle;connectable=0;fillColor=none;top=0;left=0;bottom=0;right=0;fontStyle=1;overflow=hidden;container=0;" parent="TmlSuqyC0zM2CFqLp6od-43" vertex="1">
          <mxGeometry width="50" height="30" as="geometry" />
        </mxCell>
        <mxCell id="TmlSuqyC0zM2CFqLp6od-45" value="pbb_simulation_id" style="shape=partialRectangle;connectable=0;fillColor=none;top=0;left=0;bottom=0;right=0;align=left;spacingLeft=6;fontStyle=5;overflow=hidden;container=0;" parent="TmlSuqyC0zM2CFqLp6od-43" vertex="1">
          <mxGeometry x="50" width="120" height="30" as="geometry" />
        </mxCell>
        <mxCell id="TmlSuqyC0zM2CFqLp6od-46" value="" style="shape=partialRectangle;collapsible=0;dropTarget=0;pointerEvents=0;fillColor=none;top=0;left=0;bottom=0;right=0;points=[[0,0.5],[1,0.5]];portConstraint=eastwest;" parent="TmlSuqyC0zM2CFqLp6od-39" vertex="1">
          <mxGeometry y="86" width="170" height="30" as="geometry" />
        </mxCell>
        <mxCell id="TmlSuqyC0zM2CFqLp6od-47" value="" style="shape=partialRectangle;connectable=0;fillColor=none;top=0;left=0;bottom=0;right=0;editable=1;overflow=hidden;container=0;" parent="TmlSuqyC0zM2CFqLp6od-46" vertex="1">
          <mxGeometry width="50" height="30" as="geometry" />
        </mxCell>
        <mxCell id="TmlSuqyC0zM2CFqLp6od-48" value="company_no" style="shape=partialRectangle;connectable=0;fillColor=none;top=0;left=0;bottom=0;right=0;align=left;spacingLeft=6;overflow=hidden;container=0;" parent="TmlSuqyC0zM2CFqLp6od-46" vertex="1">
          <mxGeometry x="50" width="120" height="30" as="geometry" />
        </mxCell>
        <mxCell id="TmlSuqyC0zM2CFqLp6od-49" value="" style="shape=partialRectangle;collapsible=0;dropTarget=0;pointerEvents=0;fillColor=none;top=0;left=0;bottom=0;right=0;points=[[0,0.5],[1,0.5]];portConstraint=eastwest;" parent="TmlSuqyC0zM2CFqLp6od-39" vertex="1">
          <mxGeometry y="116" width="170" height="30" as="geometry" />
        </mxCell>
        <mxCell id="TmlSuqyC0zM2CFqLp6od-50" value="" style="shape=partialRectangle;connectable=0;fillColor=none;top=0;left=0;bottom=0;right=0;editable=1;overflow=hidden;container=0;" parent="TmlSuqyC0zM2CFqLp6od-49" vertex="1">
          <mxGeometry width="50" height="30" as="geometry" />
        </mxCell>
        <mxCell id="TmlSuqyC0zM2CFqLp6od-51" value="plugin_name" style="shape=partialRectangle;connectable=0;fillColor=none;top=0;left=0;bottom=0;right=0;align=left;spacingLeft=6;overflow=hidden;container=0;" parent="TmlSuqyC0zM2CFqLp6od-49" vertex="1">
          <mxGeometry x="50" width="120" height="30" as="geometry" />
        </mxCell>
        <mxCell id="StMam2Ljch9In4MUhCjx-3" style="edgeStyle=orthogonalEdgeStyle;rounded=0;orthogonalLoop=1;jettySize=auto;html=1;exitX=0.5;exitY=0;exitDx=0;exitDy=0;entryX=0.005;entryY=0.113;entryDx=0;entryDy=0;entryPerimeter=0;" parent="HQGPUMjog5LNMLzuyo_q-1" source="TmlSuqyC0zM2CFqLp6od-65" target="TmlSuqyC0zM2CFqLp6od-36" edge="1">
          <mxGeometry relative="1" as="geometry" />
        </mxCell>
        <mxCell id="TmlSuqyC0zM2CFqLp6od-65" value="pbb_simulation" style="shape=table;startSize=25;container=1;collapsible=1;childLayout=tableLayout;fixedRows=1;rowLines=0;fontStyle=1;align=center;resizeLast=1;" parent="HQGPUMjog5LNMLzuyo_q-1" vertex="1">
          <mxGeometry x="420" y="800" width="180" height="150" as="geometry" />
        </mxCell>
        <mxCell id="TmlSuqyC0zM2CFqLp6od-66" value="" style="shape=partialRectangle;collapsible=0;dropTarget=0;pointerEvents=0;fillColor=none;top=0;left=0;bottom=0;right=0;points=[[0,0.5],[1,0.5]];portConstraint=eastwest;" parent="TmlSuqyC0zM2CFqLp6od-65" vertex="1">
          <mxGeometry y="25" width="180" height="30" as="geometry" />
        </mxCell>
        <mxCell id="TmlSuqyC0zM2CFqLp6od-67" value="PK,FK1" style="shape=partialRectangle;connectable=0;fillColor=none;top=0;left=0;bottom=0;right=0;fontStyle=1;overflow=hidden;container=0;" parent="TmlSuqyC0zM2CFqLp6od-66" vertex="1">
          <mxGeometry width="60" height="30" as="geometry" />
        </mxCell>
        <mxCell id="TmlSuqyC0zM2CFqLp6od-68" value="pbb_simulation_id" style="shape=partialRectangle;connectable=0;fillColor=none;top=0;left=0;bottom=0;right=0;align=left;spacingLeft=6;fontStyle=5;overflow=hidden;" parent="TmlSuqyC0zM2CFqLp6od-66" vertex="1">
          <mxGeometry x="60" width="120" height="30" as="geometry" />
        </mxCell>
        <mxCell id="TmlSuqyC0zM2CFqLp6od-69" value="" style="shape=partialRectangle;collapsible=0;dropTarget=0;pointerEvents=0;fillColor=none;top=0;left=0;bottom=1;right=0;points=[[0,0.5],[1,0.5]];portConstraint=eastwest;" parent="TmlSuqyC0zM2CFqLp6od-65" vertex="1">
          <mxGeometry y="55" width="180" height="30" as="geometry" />
        </mxCell>
        <mxCell id="TmlSuqyC0zM2CFqLp6od-70" value="PK,FK2" style="shape=partialRectangle;connectable=0;fillColor=none;top=0;left=0;bottom=0;right=0;fontStyle=1;overflow=hidden;container=0;" parent="TmlSuqyC0zM2CFqLp6od-69" vertex="1">
          <mxGeometry width="60" height="30" as="geometry" />
        </mxCell>
        <mxCell id="TmlSuqyC0zM2CFqLp6od-71" value="pbb_station_id" style="shape=partialRectangle;connectable=0;fillColor=none;top=0;left=0;bottom=0;right=0;align=left;spacingLeft=6;fontStyle=5;overflow=hidden;" parent="TmlSuqyC0zM2CFqLp6od-69" vertex="1">
          <mxGeometry x="60" width="120" height="30" as="geometry" />
        </mxCell>
        <mxCell id="TmlSuqyC0zM2CFqLp6od-72" value="" style="shape=partialRectangle;collapsible=0;dropTarget=0;pointerEvents=0;fillColor=none;top=0;left=0;bottom=0;right=0;points=[[0,0.5],[1,0.5]];portConstraint=eastwest;" parent="TmlSuqyC0zM2CFqLp6od-65" vertex="1">
          <mxGeometry y="85" width="180" height="35" as="geometry" />
        </mxCell>
        <mxCell id="TmlSuqyC0zM2CFqLp6od-73" value="" style="shape=partialRectangle;connectable=0;fillColor=none;top=0;left=0;bottom=0;right=0;editable=1;overflow=hidden;container=0;" parent="TmlSuqyC0zM2CFqLp6od-72" vertex="1">
          <mxGeometry width="60" height="35" as="geometry" />
        </mxCell>
        <mxCell id="TmlSuqyC0zM2CFqLp6od-74" value="module_id" style="shape=partialRectangle;connectable=0;fillColor=none;top=0;left=0;bottom=0;right=0;align=left;spacingLeft=6;overflow=hidden;" parent="TmlSuqyC0zM2CFqLp6od-72" vertex="1">
          <mxGeometry x="60" width="120" height="35" as="geometry" />
        </mxCell>
        <mxCell id="TmlSuqyC0zM2CFqLp6od-75" value="" style="shape=partialRectangle;collapsible=0;dropTarget=0;pointerEvents=0;fillColor=none;top=0;left=0;bottom=0;right=0;points=[[0,0.5],[1,0.5]];portConstraint=eastwest;" parent="TmlSuqyC0zM2CFqLp6od-65" vertex="1">
          <mxGeometry y="120" width="180" height="30" as="geometry" />
        </mxCell>
        <mxCell id="TmlSuqyC0zM2CFqLp6od-76" value="" style="shape=partialRectangle;connectable=0;fillColor=none;top=0;left=0;bottom=0;right=0;editable=1;overflow=hidden;container=0;" parent="TmlSuqyC0zM2CFqLp6od-75" vertex="1">
          <mxGeometry width="60" height="30" as="geometry" />
        </mxCell>
        <mxCell id="TmlSuqyC0zM2CFqLp6od-77" value="Row 4" style="shape=partialRectangle;connectable=0;fillColor=none;top=0;left=0;bottom=0;right=0;align=left;spacingLeft=6;overflow=hidden;" parent="TmlSuqyC0zM2CFqLp6od-75" vertex="1">
          <mxGeometry x="60" width="120" height="30" as="geometry" />
        </mxCell>
        <mxCell id="TmlSuqyC0zM2CFqLp6od-78" value="picture" style="shape=table;startSize=30;container=1;collapsible=1;childLayout=tableLayout;fixedRows=1;rowLines=0;fontStyle=1;align=center;resizeLast=1;" parent="HQGPUMjog5LNMLzuyo_q-1" vertex="1">
          <mxGeometry x="145" y="710" width="140" height="130" as="geometry" />
        </mxCell>
        <mxCell id="TmlSuqyC0zM2CFqLp6od-79" value="" style="shape=partialRectangle;collapsible=0;dropTarget=0;pointerEvents=0;fillColor=none;top=0;left=0;bottom=0;right=0;points=[[0,0.5],[1,0.5]];portConstraint=eastwest;" parent="TmlSuqyC0zM2CFqLp6od-78" vertex="1">
          <mxGeometry y="30" width="140" height="30" as="geometry" />
        </mxCell>
        <mxCell id="TmlSuqyC0zM2CFqLp6od-80" value="PK,FK1" style="shape=partialRectangle;connectable=0;fillColor=none;top=0;left=0;bottom=0;right=0;fontStyle=1;overflow=hidden;container=0;" parent="TmlSuqyC0zM2CFqLp6od-79" vertex="1">
          <mxGeometry width="60" height="30" as="geometry" />
        </mxCell>
        <mxCell id="TmlSuqyC0zM2CFqLp6od-81" value="pic_id" style="shape=partialRectangle;connectable=0;fillColor=none;top=0;left=0;bottom=0;right=0;align=left;spacingLeft=6;fontStyle=5;overflow=hidden;container=0;" parent="TmlSuqyC0zM2CFqLp6od-79" vertex="1">
          <mxGeometry x="60" width="80" height="30" as="geometry" />
        </mxCell>
        <mxCell id="TmlSuqyC0zM2CFqLp6od-82" value="" style="shape=partialRectangle;collapsible=0;dropTarget=0;pointerEvents=0;fillColor=none;top=0;left=0;bottom=1;right=0;points=[[0,0.5],[1,0.5]];portConstraint=eastwest;" parent="TmlSuqyC0zM2CFqLp6od-78" vertex="1">
          <mxGeometry y="60" width="140" height="20" as="geometry" />
        </mxCell>
        <mxCell id="TmlSuqyC0zM2CFqLp6od-83" value="PK,FK2" style="shape=partialRectangle;connectable=0;fillColor=none;top=0;left=0;bottom=0;right=0;fontStyle=1;overflow=hidden;container=0;" parent="TmlSuqyC0zM2CFqLp6od-82" vertex="1">
          <mxGeometry width="60" height="20" as="geometry" />
        </mxCell>
        <mxCell id="TmlSuqyC0zM2CFqLp6od-84" value="station_id" style="shape=partialRectangle;connectable=0;fillColor=none;top=0;left=0;bottom=0;right=0;align=left;spacingLeft=6;fontStyle=5;overflow=hidden;container=0;" parent="TmlSuqyC0zM2CFqLp6od-82" vertex="1">
          <mxGeometry x="60" width="80" height="20" as="geometry" />
        </mxCell>
        <mxCell id="TmlSuqyC0zM2CFqLp6od-85" value="" style="shape=partialRectangle;collapsible=0;dropTarget=0;pointerEvents=0;fillColor=none;top=0;left=0;bottom=0;right=0;points=[[0,0.5],[1,0.5]];portConstraint=eastwest;" parent="TmlSuqyC0zM2CFqLp6od-78" vertex="1">
          <mxGeometry y="80" width="140" height="20" as="geometry" />
        </mxCell>
        <mxCell id="TmlSuqyC0zM2CFqLp6od-86" value="" style="shape=partialRectangle;connectable=0;fillColor=none;top=0;left=0;bottom=0;right=0;editable=1;overflow=hidden;container=0;" parent="TmlSuqyC0zM2CFqLp6od-85" vertex="1">
          <mxGeometry width="60" height="20" as="geometry" />
        </mxCell>
        <mxCell id="TmlSuqyC0zM2CFqLp6od-87" value="file_name" style="shape=partialRectangle;connectable=0;fillColor=none;top=0;left=0;bottom=0;right=0;align=left;spacingLeft=6;overflow=hidden;container=0;" parent="TmlSuqyC0zM2CFqLp6od-85" vertex="1">
          <mxGeometry x="60" width="80" height="20" as="geometry" />
        </mxCell>
        <mxCell id="TmlSuqyC0zM2CFqLp6od-88" value="" style="shape=partialRectangle;collapsible=0;dropTarget=0;pointerEvents=0;fillColor=none;top=0;left=0;bottom=0;right=0;points=[[0,0.5],[1,0.5]];portConstraint=eastwest;" parent="TmlSuqyC0zM2CFqLp6od-78" vertex="1">
          <mxGeometry y="100" width="140" height="30" as="geometry" />
        </mxCell>
        <mxCell id="TmlSuqyC0zM2CFqLp6od-89" value="" style="shape=partialRectangle;connectable=0;fillColor=none;top=0;left=0;bottom=0;right=0;editable=1;overflow=hidden;container=0;" parent="TmlSuqyC0zM2CFqLp6od-88" vertex="1">
          <mxGeometry width="60" height="30" as="geometry" />
        </mxCell>
        <mxCell id="TmlSuqyC0zM2CFqLp6od-90" value="content" style="shape=partialRectangle;connectable=0;fillColor=none;top=0;left=0;bottom=0;right=0;align=left;spacingLeft=6;overflow=hidden;container=0;" parent="TmlSuqyC0zM2CFqLp6od-88" vertex="1">
          <mxGeometry x="60" width="80" height="30" as="geometry" />
        </mxCell>
        <mxCell id="StMam2Ljch9In4MUhCjx-5" style="edgeStyle=orthogonalEdgeStyle;rounded=0;orthogonalLoop=1;jettySize=auto;html=1;exitX=0.5;exitY=0;exitDx=0;exitDy=0;entryX=0;entryY=0.5;entryDx=0;entryDy=0;" parent="HQGPUMjog5LNMLzuyo_q-1" source="TmlSuqyC0zM2CFqLp6od-123" target="TmlSuqyC0zM2CFqLp6od-75" edge="1">
          <mxGeometry relative="1" as="geometry" />
        </mxCell>
        <mxCell id="TmlSuqyC0zM2CFqLp6od-123" value="pbb_inverter" style="shape=table;startSize=30;container=1;collapsible=1;childLayout=tableLayout;fixedRows=1;rowLines=0;fontStyle=1;align=center;resizeLast=1;" parent="HQGPUMjog5LNMLzuyo_q-1" vertex="1">
          <mxGeometry x="185" y="1080" width="165" height="180" as="geometry" />
        </mxCell>
        <mxCell id="TmlSuqyC0zM2CFqLp6od-124" value="" style="shape=partialRectangle;collapsible=0;dropTarget=0;pointerEvents=0;fillColor=none;top=0;left=0;bottom=0;right=0;points=[[0,0.5],[1,0.5]];portConstraint=eastwest;" parent="TmlSuqyC0zM2CFqLp6od-123" vertex="1">
          <mxGeometry y="30" width="165" height="30" as="geometry" />
        </mxCell>
        <mxCell id="TmlSuqyC0zM2CFqLp6od-125" value="PK,FK1" style="shape=partialRectangle;connectable=0;fillColor=none;top=0;left=0;bottom=0;right=0;fontStyle=1;overflow=hidden;container=0;" parent="TmlSuqyC0zM2CFqLp6od-124" vertex="1">
          <mxGeometry width="45" height="30" as="geometry" />
        </mxCell>
        <mxCell id="TmlSuqyC0zM2CFqLp6od-126" value="pbb_invert_id" style="shape=partialRectangle;connectable=0;fillColor=none;top=0;left=0;bottom=0;right=0;align=left;spacingLeft=6;fontStyle=5;overflow=hidden;container=0;" parent="TmlSuqyC0zM2CFqLp6od-124" vertex="1">
          <mxGeometry x="45" width="120" height="30" as="geometry" />
        </mxCell>
        <mxCell id="TmlSuqyC0zM2CFqLp6od-127" value="" style="shape=partialRectangle;collapsible=0;dropTarget=0;pointerEvents=0;fillColor=none;top=0;left=0;bottom=1;right=0;points=[[0,0.5],[1,0.5]];portConstraint=eastwest;" parent="TmlSuqyC0zM2CFqLp6od-123" vertex="1">
          <mxGeometry y="60" width="165" height="30" as="geometry" />
        </mxCell>
        <mxCell id="TmlSuqyC0zM2CFqLp6od-128" value="PK,FK2" style="shape=partialRectangle;connectable=0;fillColor=none;top=0;left=0;bottom=0;right=0;fontStyle=1;overflow=hidden;container=0;" parent="TmlSuqyC0zM2CFqLp6od-127" vertex="1">
          <mxGeometry width="45" height="30" as="geometry" />
        </mxCell>
        <mxCell id="TmlSuqyC0zM2CFqLp6od-129" value="pbb_simulation_id" style="shape=partialRectangle;connectable=0;fillColor=none;top=0;left=0;bottom=0;right=0;align=left;spacingLeft=6;fontStyle=5;overflow=hidden;container=0;" parent="TmlSuqyC0zM2CFqLp6od-127" vertex="1">
          <mxGeometry x="45" width="120" height="30" as="geometry" />
        </mxCell>
        <mxCell id="TmlSuqyC0zM2CFqLp6od-130" value="" style="shape=partialRectangle;collapsible=0;dropTarget=0;pointerEvents=0;fillColor=none;top=0;left=0;bottom=0;right=0;points=[[0,0.5],[1,0.5]];portConstraint=eastwest;" parent="TmlSuqyC0zM2CFqLp6od-123" vertex="1">
          <mxGeometry y="90" width="165" height="30" as="geometry" />
        </mxCell>
        <mxCell id="TmlSuqyC0zM2CFqLp6od-131" value="" style="shape=partialRectangle;connectable=0;fillColor=none;top=0;left=0;bottom=0;right=0;editable=1;overflow=hidden;container=0;" parent="TmlSuqyC0zM2CFqLp6od-130" vertex="1">
          <mxGeometry width="45" height="30" as="geometry" />
        </mxCell>
        <mxCell id="TmlSuqyC0zM2CFqLp6od-132" value="model_type" style="shape=partialRectangle;connectable=0;fillColor=none;top=0;left=0;bottom=0;right=0;align=left;spacingLeft=6;overflow=hidden;container=0;" parent="TmlSuqyC0zM2CFqLp6od-130" vertex="1">
          <mxGeometry x="45" width="120" height="30" as="geometry" />
        </mxCell>
        <mxCell id="xX3AFgnekSskgfRRIRou-1" value="" style="shape=partialRectangle;collapsible=0;dropTarget=0;pointerEvents=0;fillColor=none;top=0;left=0;bottom=0;right=0;points=[[0,0.5],[1,0.5]];portConstraint=eastwest;" parent="TmlSuqyC0zM2CFqLp6od-123" vertex="1">
          <mxGeometry y="120" width="165" height="30" as="geometry" />
        </mxCell>
        <mxCell id="xX3AFgnekSskgfRRIRou-2" value="" style="shape=partialRectangle;connectable=0;fillColor=none;top=0;left=0;bottom=0;right=0;editable=1;overflow=hidden;container=0;" parent="xX3AFgnekSskgfRRIRou-1" vertex="1">
          <mxGeometry width="45" height="30" as="geometry" />
        </mxCell>
        <mxCell id="xX3AFgnekSskgfRRIRou-3" value="factory" style="shape=partialRectangle;connectable=0;fillColor=none;top=0;left=0;bottom=0;right=0;align=left;spacingLeft=6;overflow=hidden;container=0;" parent="xX3AFgnekSskgfRRIRou-1" vertex="1">
          <mxGeometry x="45" width="120" height="30" as="geometry" />
        </mxCell>
        <mxCell id="TmlSuqyC0zM2CFqLp6od-15" value="" style="shape=partialRectangle;collapsible=0;dropTarget=0;pointerEvents=0;fillColor=none;top=0;left=0;bottom=0;right=0;points=[[0,0.5],[1,0.5]];portConstraint=eastwest;" parent="TmlSuqyC0zM2CFqLp6od-123" vertex="1">
          <mxGeometry y="150" width="165" height="30" as="geometry" />
        </mxCell>
        <mxCell id="TmlSuqyC0zM2CFqLp6od-16" value="" style="shape=partialRectangle;connectable=0;fillColor=none;top=0;left=0;bottom=0;right=0;editable=1;overflow=hidden;container=0;" parent="TmlSuqyC0zM2CFqLp6od-15" vertex="1">
          <mxGeometry width="45" height="30" as="geometry" />
        </mxCell>
        <mxCell id="TmlSuqyC0zM2CFqLp6od-17" value="number" style="shape=partialRectangle;connectable=0;fillColor=none;top=0;left=0;bottom=0;right=0;align=left;spacingLeft=6;overflow=hidden;container=0;" parent="TmlSuqyC0zM2CFqLp6od-15" vertex="1">
          <mxGeometry x="45" width="120" height="30" as="geometry" />
        </mxCell>
        <mxCell id="StMam2Ljch9In4MUhCjx-8" style="edgeStyle=orthogonalEdgeStyle;rounded=0;orthogonalLoop=1;jettySize=auto;html=1;exitX=0.5;exitY=0;exitDx=0;exitDy=0;entryX=1;entryY=0.5;entryDx=0;entryDy=0;" parent="HQGPUMjog5LNMLzuyo_q-1" source="TmlSuqyC0zM2CFqLp6od-139" target="TmlSuqyC0zM2CFqLp6od-75" edge="1">
          <mxGeometry relative="1" as="geometry" />
        </mxCell>
        <mxCell id="TmlSuqyC0zM2CFqLp6od-139" value="pbb_power_data" style="shape=table;startSize=30;container=1;collapsible=1;childLayout=tableLayout;fixedRows=1;rowLines=0;fontStyle=1;align=center;resizeLast=1;" parent="HQGPUMjog5LNMLzuyo_q-1" vertex="1">
          <mxGeometry x="600" y="1080" width="150" height="190" as="geometry" />
        </mxCell>
        <mxCell id="TmlSuqyC0zM2CFqLp6od-140" value="" style="shape=partialRectangle;collapsible=0;dropTarget=0;pointerEvents=0;fillColor=none;top=0;left=0;bottom=1;right=0;points=[[0,0.5],[1,0.5]];portConstraint=eastwest;" parent="TmlSuqyC0zM2CFqLp6od-139" vertex="1">
          <mxGeometry y="30" width="150" height="30" as="geometry" />
        </mxCell>
        <mxCell id="TmlSuqyC0zM2CFqLp6od-141" value="PK" style="shape=partialRectangle;connectable=0;fillColor=none;top=0;left=0;bottom=0;right=0;fontStyle=1;overflow=hidden;container=0;" parent="TmlSuqyC0zM2CFqLp6od-140" vertex="1">
          <mxGeometry width="30" height="30" as="geometry" />
        </mxCell>
        <mxCell id="TmlSuqyC0zM2CFqLp6od-142" value="power_data_id" style="shape=partialRectangle;connectable=0;fillColor=none;top=0;left=0;bottom=0;right=0;align=left;spacingLeft=6;fontStyle=5;overflow=hidden;container=0;" parent="TmlSuqyC0zM2CFqLp6od-140" vertex="1">
          <mxGeometry x="30" width="120" height="30" as="geometry" />
        </mxCell>
        <mxCell id="TmlSuqyC0zM2CFqLp6od-152" value="" style="shape=partialRectangle;collapsible=0;dropTarget=0;pointerEvents=0;fillColor=none;top=0;left=0;bottom=1;right=0;points=[[0,0.5],[1,0.5]];portConstraint=eastwest;" parent="TmlSuqyC0zM2CFqLp6od-139" vertex="1">
          <mxGeometry y="60" width="150" height="30" as="geometry" />
        </mxCell>
        <mxCell id="TmlSuqyC0zM2CFqLp6od-153" value="FK" style="shape=partialRectangle;connectable=0;fillColor=none;top=0;left=0;bottom=0;right=0;fontStyle=1;overflow=hidden;container=0;" parent="TmlSuqyC0zM2CFqLp6od-152" vertex="1">
          <mxGeometry width="30" height="30" as="geometry" />
        </mxCell>
        <mxCell id="TmlSuqyC0zM2CFqLp6od-154" value="pbb_simulation_id" style="shape=partialRectangle;connectable=0;fillColor=none;top=0;left=0;bottom=0;right=0;align=left;spacingLeft=6;fontStyle=5;overflow=hidden;container=0;" parent="TmlSuqyC0zM2CFqLp6od-152" vertex="1">
          <mxGeometry x="30" width="120" height="30" as="geometry" />
        </mxCell>
        <mxCell id="TmlSuqyC0zM2CFqLp6od-143" value="" style="shape=partialRectangle;collapsible=0;dropTarget=0;pointerEvents=0;fillColor=none;top=0;left=0;bottom=0;right=0;points=[[0,0.5],[1,0.5]];portConstraint=eastwest;" parent="TmlSuqyC0zM2CFqLp6od-139" vertex="1">
          <mxGeometry y="90" width="150" height="30" as="geometry" />
        </mxCell>
        <mxCell id="TmlSuqyC0zM2CFqLp6od-144" value="" style="shape=partialRectangle;connectable=0;fillColor=none;top=0;left=0;bottom=0;right=0;editable=1;overflow=hidden;container=0;" parent="TmlSuqyC0zM2CFqLp6od-143" vertex="1">
          <mxGeometry width="30" height="30" as="geometry" />
        </mxCell>
        <mxCell id="TmlSuqyC0zM2CFqLp6od-145" value="Row 1" style="shape=partialRectangle;connectable=0;fillColor=none;top=0;left=0;bottom=0;right=0;align=left;spacingLeft=6;overflow=hidden;container=0;" parent="TmlSuqyC0zM2CFqLp6od-143" vertex="1">
          <mxGeometry x="30" width="120" height="30" as="geometry" />
        </mxCell>
        <mxCell id="TmlSuqyC0zM2CFqLp6od-146" value="" style="shape=partialRectangle;collapsible=0;dropTarget=0;pointerEvents=0;fillColor=none;top=0;left=0;bottom=0;right=0;points=[[0,0.5],[1,0.5]];portConstraint=eastwest;" parent="TmlSuqyC0zM2CFqLp6od-139" vertex="1">
          <mxGeometry y="120" width="150" height="30" as="geometry" />
        </mxCell>
        <mxCell id="TmlSuqyC0zM2CFqLp6od-147" value="" style="shape=partialRectangle;connectable=0;fillColor=none;top=0;left=0;bottom=0;right=0;editable=1;overflow=hidden;container=0;" parent="TmlSuqyC0zM2CFqLp6od-146" vertex="1">
          <mxGeometry width="30" height="30" as="geometry" />
        </mxCell>
        <mxCell id="TmlSuqyC0zM2CFqLp6od-148" value="Row 2" style="shape=partialRectangle;connectable=0;fillColor=none;top=0;left=0;bottom=0;right=0;align=left;spacingLeft=6;overflow=hidden;container=0;" parent="TmlSuqyC0zM2CFqLp6od-146" vertex="1">
          <mxGeometry x="30" width="120" height="30" as="geometry" />
        </mxCell>
        <mxCell id="TmlSuqyC0zM2CFqLp6od-149" value="" style="shape=partialRectangle;collapsible=0;dropTarget=0;pointerEvents=0;fillColor=none;top=0;left=0;bottom=0;right=0;points=[[0,0.5],[1,0.5]];portConstraint=eastwest;" parent="TmlSuqyC0zM2CFqLp6od-139" vertex="1">
          <mxGeometry y="150" width="150" height="30" as="geometry" />
        </mxCell>
        <mxCell id="TmlSuqyC0zM2CFqLp6od-150" value="" style="shape=partialRectangle;connectable=0;fillColor=none;top=0;left=0;bottom=0;right=0;editable=1;overflow=hidden;container=0;" parent="TmlSuqyC0zM2CFqLp6od-149" vertex="1">
          <mxGeometry width="30" height="30" as="geometry" />
        </mxCell>
        <mxCell id="TmlSuqyC0zM2CFqLp6od-151" value="Row 3" style="shape=partialRectangle;connectable=0;fillColor=none;top=0;left=0;bottom=0;right=0;align=left;spacingLeft=6;overflow=hidden;container=0;" parent="TmlSuqyC0zM2CFqLp6od-149" vertex="1">
          <mxGeometry x="30" width="120" height="30" as="geometry" />
        </mxCell>
        <mxCell id="StMam2Ljch9In4MUhCjx-4" style="edgeStyle=orthogonalEdgeStyle;rounded=0;orthogonalLoop=1;jettySize=auto;html=1;exitX=0.5;exitY=0;exitDx=0;exitDy=0;entryX=1;entryY=0.5;entryDx=0;entryDy=0;" parent="HQGPUMjog5LNMLzuyo_q-1" source="TmlSuqyC0zM2CFqLp6od-155" target="TmlSuqyC0zM2CFqLp6od-33" edge="1">
          <mxGeometry relative="1" as="geometry" />
        </mxCell>
        <mxCell id="TmlSuqyC0zM2CFqLp6od-155" value="dev_opt" style="shape=table;startSize=30;container=1;collapsible=1;childLayout=tableLayout;fixedRows=1;rowLines=0;fontStyle=1;align=center;resizeLast=1;" parent="HQGPUMjog5LNMLzuyo_q-1" vertex="1">
          <mxGeometry x="740" y="800" width="135" height="220" as="geometry" />
        </mxCell>
        <mxCell id="TmlSuqyC0zM2CFqLp6od-156" value="" style="shape=partialRectangle;collapsible=0;dropTarget=0;pointerEvents=0;fillColor=none;top=0;left=0;bottom=1;right=0;points=[[0,0.5],[1,0.5]];portConstraint=eastwest;" parent="TmlSuqyC0zM2CFqLp6od-155" vertex="1">
          <mxGeometry y="30" width="135" height="30" as="geometry" />
        </mxCell>
        <mxCell id="TmlSuqyC0zM2CFqLp6od-157" value="PK" style="shape=partialRectangle;connectable=0;fillColor=none;top=0;left=0;bottom=0;right=0;fontStyle=1;overflow=hidden;container=0;" parent="TmlSuqyC0zM2CFqLp6od-156" vertex="1">
          <mxGeometry width="30" height="30" as="geometry" />
        </mxCell>
        <mxCell id="TmlSuqyC0zM2CFqLp6od-158" value="dev_opt_id" style="shape=partialRectangle;connectable=0;fillColor=none;top=0;left=0;bottom=0;right=0;align=left;spacingLeft=6;fontStyle=5;overflow=hidden;container=0;" parent="TmlSuqyC0zM2CFqLp6od-156" vertex="1">
          <mxGeometry x="30" width="105" height="30" as="geometry" />
        </mxCell>
        <mxCell id="TmlSuqyC0zM2CFqLp6od-168" value="" style="shape=partialRectangle;collapsible=0;dropTarget=0;pointerEvents=0;fillColor=none;top=0;left=0;bottom=1;right=0;points=[[0,0.5],[1,0.5]];portConstraint=eastwest;" parent="TmlSuqyC0zM2CFqLp6od-155" vertex="1">
          <mxGeometry y="60" width="135" height="30" as="geometry" />
        </mxCell>
        <mxCell id="TmlSuqyC0zM2CFqLp6od-169" value="PK" style="shape=partialRectangle;connectable=0;fillColor=none;top=0;left=0;bottom=0;right=0;fontStyle=1;overflow=hidden;container=0;" parent="TmlSuqyC0zM2CFqLp6od-168" vertex="1">
          <mxGeometry width="30" height="30" as="geometry" />
        </mxCell>
        <mxCell id="TmlSuqyC0zM2CFqLp6od-170" value="pbb_station_id" style="shape=partialRectangle;connectable=0;fillColor=none;top=0;left=0;bottom=0;right=0;align=left;spacingLeft=6;fontStyle=5;overflow=hidden;container=0;" parent="TmlSuqyC0zM2CFqLp6od-168" vertex="1">
          <mxGeometry x="30" width="105" height="30" as="geometry" />
        </mxCell>
        <mxCell id="TmlSuqyC0zM2CFqLp6od-159" value="" style="shape=partialRectangle;collapsible=0;dropTarget=0;pointerEvents=0;fillColor=none;top=0;left=0;bottom=0;right=0;points=[[0,0.5],[1,0.5]];portConstraint=eastwest;" parent="TmlSuqyC0zM2CFqLp6od-155" vertex="1">
          <mxGeometry y="90" width="135" height="30" as="geometry" />
        </mxCell>
        <mxCell id="TmlSuqyC0zM2CFqLp6od-160" value="" style="shape=partialRectangle;connectable=0;fillColor=none;top=0;left=0;bottom=0;right=0;editable=1;overflow=hidden;container=0;" parent="TmlSuqyC0zM2CFqLp6od-159" vertex="1">
          <mxGeometry width="30" height="30" as="geometry" />
        </mxCell>
        <mxCell id="TmlSuqyC0zM2CFqLp6od-161" value="pic_id" style="shape=partialRectangle;connectable=0;fillColor=none;top=0;left=0;bottom=0;right=0;align=left;spacingLeft=6;overflow=hidden;container=0;" parent="TmlSuqyC0zM2CFqLp6od-159" vertex="1">
          <mxGeometry x="30" width="105" height="30" as="geometry" />
        </mxCell>
        <mxCell id="TmlSuqyC0zM2CFqLp6od-162" value="" style="shape=partialRectangle;collapsible=0;dropTarget=0;pointerEvents=0;fillColor=none;top=0;left=0;bottom=0;right=0;points=[[0,0.5],[1,0.5]];portConstraint=eastwest;" parent="TmlSuqyC0zM2CFqLp6od-155" vertex="1">
          <mxGeometry y="120" width="135" height="30" as="geometry" />
        </mxCell>
        <mxCell id="TmlSuqyC0zM2CFqLp6od-163" value="" style="shape=partialRectangle;connectable=0;fillColor=none;top=0;left=0;bottom=0;right=0;editable=1;overflow=hidden;container=0;" parent="TmlSuqyC0zM2CFqLp6od-162" vertex="1">
          <mxGeometry width="30" height="30" as="geometry" />
        </mxCell>
        <mxCell id="TmlSuqyC0zM2CFqLp6od-164" value="Row 2" style="shape=partialRectangle;connectable=0;fillColor=none;top=0;left=0;bottom=0;right=0;align=left;spacingLeft=6;overflow=hidden;container=0;" parent="TmlSuqyC0zM2CFqLp6od-162" vertex="1">
          <mxGeometry x="30" width="105" height="30" as="geometry" />
        </mxCell>
        <mxCell id="i029JJMTDpe6sgKyNZ-6-0" value="" style="shape=partialRectangle;collapsible=0;dropTarget=0;pointerEvents=0;fillColor=none;top=0;left=0;bottom=0;right=0;points=[[0,0.5],[1,0.5]];portConstraint=eastwest;" parent="TmlSuqyC0zM2CFqLp6od-155" vertex="1">
          <mxGeometry y="150" width="135" height="30" as="geometry" />
        </mxCell>
        <mxCell id="i029JJMTDpe6sgKyNZ-6-1" value="" style="shape=partialRectangle;connectable=0;fillColor=none;top=0;left=0;bottom=0;right=0;editable=1;overflow=hidden;container=0;" parent="i029JJMTDpe6sgKyNZ-6-0" vertex="1">
          <mxGeometry width="30" height="30" as="geometry" />
        </mxCell>
        <mxCell id="i029JJMTDpe6sgKyNZ-6-2" value="Row 2" style="shape=partialRectangle;connectable=0;fillColor=none;top=0;left=0;bottom=0;right=0;align=left;spacingLeft=6;overflow=hidden;container=0;" parent="i029JJMTDpe6sgKyNZ-6-0" vertex="1">
          <mxGeometry x="30" width="105" height="30" as="geometry" />
        </mxCell>
        <mxCell id="TmlSuqyC0zM2CFqLp6od-165" value="" style="shape=partialRectangle;collapsible=0;dropTarget=0;pointerEvents=0;fillColor=none;top=0;left=0;bottom=0;right=0;points=[[0,0.5],[1,0.5]];portConstraint=eastwest;" parent="TmlSuqyC0zM2CFqLp6od-155" vertex="1">
          <mxGeometry y="180" width="135" height="30" as="geometry" />
        </mxCell>
        <mxCell id="TmlSuqyC0zM2CFqLp6od-166" value="" style="shape=partialRectangle;connectable=0;fillColor=none;top=0;left=0;bottom=0;right=0;editable=1;overflow=hidden;container=0;" parent="TmlSuqyC0zM2CFqLp6od-165" vertex="1">
          <mxGeometry width="30" height="30" as="geometry" />
        </mxCell>
        <mxCell id="TmlSuqyC0zM2CFqLp6od-167" value="Row 3" style="shape=partialRectangle;connectable=0;fillColor=none;top=0;left=0;bottom=0;right=0;align=left;spacingLeft=6;overflow=hidden;container=0;" parent="TmlSuqyC0zM2CFqLp6od-165" vertex="1">
          <mxGeometry x="30" width="105" height="30" as="geometry" />
        </mxCell>
      </root>
    </mxGraphModel>
  </diagram>
  <diagram id="lwuJ0cubhbyhhODcX88E" name="数据库表">
    <mxGraphModel dx="1070" dy="712" grid="1" gridSize="10" guides="1" tooltips="1" connect="1" arrows="1" fold="1" page="1" pageScale="1" pageWidth="827" pageHeight="1169" math="0" shadow="0">
      <root>
        <mxCell id="QcE3PReFvYjuMhEhEGov-0" />
        <mxCell id="QcE3PReFvYjuMhEhEGov-1" parent="QcE3PReFvYjuMhEhEGov-0" />
        <mxCell id="fYrtVf4TbGVnYK6b-VUZ-6" value="" style="group" vertex="1" connectable="0" parent="QcE3PReFvYjuMhEhEGov-1">
          <mxGeometry x="100" y="120" width="690" height="635" as="geometry" />
        </mxCell>
        <mxCell id="QcE3PReFvYjuMhEhEGov-2" value="&lt;div style=&quot;box-sizing: border-box ; width: 100% ; background: #e4e4e4 ; padding: 2px&quot;&gt;pbb_log(采集记录表)&lt;/div&gt;&lt;table style=&quot;width: 100% ; font-size: 1em&quot; cellpadding=&quot;2&quot; cellspacing=&quot;0&quot;&gt;&lt;tbody&gt;&lt;tr&gt;&lt;td&gt;PK&lt;/td&gt;&lt;td&gt;pbb_log_id&lt;/td&gt;&lt;/tr&gt;&lt;tr&gt;&lt;td&gt;FK1&lt;/td&gt;&lt;td&gt;pbb_station_id&lt;/td&gt;&lt;/tr&gt;&lt;tr&gt;&lt;td&gt;&lt;/td&gt;&lt;td&gt;电话&lt;/td&gt;&lt;/tr&gt;&lt;/tbody&gt;&lt;/table&gt;&amp;nbsp; &amp;nbsp; &amp;nbsp; &amp;nbsp; &amp;nbsp; &amp;nbsp; &amp;nbsp; 状态&lt;br&gt;&amp;nbsp; &amp;nbsp; &amp;nbsp; &amp;nbsp; &amp;nbsp; &amp;nbsp; &amp;nbsp; 意见&lt;br&gt;&amp;nbsp; &amp;nbsp; &amp;nbsp; &amp;nbsp; &amp;nbsp; &amp;nbsp; &amp;nbsp; .......&lt;br&gt;&lt;br&gt;" style="verticalAlign=top;align=left;overflow=fill;html=1;" vertex="1" parent="fYrtVf4TbGVnYK6b-VUZ-6">
          <mxGeometry x="230" width="180" height="120" as="geometry" />
        </mxCell>
        <mxCell id="hMB7VtnqHIDYJFfFqTVc-0" style="edgeStyle=none;rounded=0;orthogonalLoop=1;jettySize=auto;html=1;exitX=0.5;exitY=0;exitDx=0;exitDy=0;entryX=0.5;entryY=1;entryDx=0;entryDy=0;" edge="1" parent="fYrtVf4TbGVnYK6b-VUZ-6" source="QcE3PReFvYjuMhEhEGov-3" target="QcE3PReFvYjuMhEhEGov-2">
          <mxGeometry relative="1" as="geometry" />
        </mxCell>
        <mxCell id="QcE3PReFvYjuMhEhEGov-3" value="&lt;div style=&quot;box-sizing: border-box ; width: 100% ; background: #e4e4e4 ; padding: 2px&quot;&gt;pbb_station(电站基本信息表)&lt;/div&gt;&lt;table style=&quot;width: 100% ; font-size: 1em&quot; cellpadding=&quot;2&quot; cellspacing=&quot;0&quot;&gt;&lt;tbody&gt;&lt;tr&gt;&lt;td&gt;PK&lt;/td&gt;&lt;td&gt;station_id&lt;br&gt;&lt;/td&gt;&lt;/tr&gt;&lt;tr&gt;&lt;td&gt;&lt;br&gt;&lt;/td&gt;&lt;td&gt;station_name(名称)&lt;/td&gt;&lt;/tr&gt;&lt;tr&gt;&lt;td&gt;&lt;/td&gt;&lt;td&gt;station_no(编码)&lt;br&gt;......&lt;/td&gt;&lt;/tr&gt;&lt;/tbody&gt;&lt;/table&gt;" style="verticalAlign=top;align=left;overflow=fill;html=1;" vertex="1" parent="fYrtVf4TbGVnYK6b-VUZ-6">
          <mxGeometry x="230" y="200" width="180" height="90" as="geometry" />
        </mxCell>
        <mxCell id="QcE3PReFvYjuMhEhEGov-5" value="&lt;div style=&quot;box-sizing: border-box ; width: 100% ; background: #e4e4e4 ; padding: 2px&quot;&gt;pbb_inverter(逆变器)&lt;/div&gt;&lt;table style=&quot;width: 100% ; font-size: 1em&quot; cellpadding=&quot;2&quot; cellspacing=&quot;0&quot;&gt;&lt;tbody&gt;&lt;tr&gt;&lt;td&gt;PK&lt;/td&gt;&lt;td&gt;inverter_id&lt;br&gt;&lt;/td&gt;&lt;/tr&gt;&lt;tr&gt;&lt;td&gt;FK1&lt;/td&gt;&lt;td&gt;pbb_simulation_id&lt;/td&gt;&lt;/tr&gt;&lt;tr&gt;&lt;td&gt;&lt;/td&gt;&lt;td&gt;.....&lt;/td&gt;&lt;/tr&gt;&lt;/tbody&gt;&lt;/table&gt;" style="verticalAlign=top;align=left;overflow=fill;html=1;" vertex="1" parent="fYrtVf4TbGVnYK6b-VUZ-6">
          <mxGeometry x="110" y="545" width="180" height="90" as="geometry" />
        </mxCell>
        <mxCell id="QcE3PReFvYjuMhEhEGov-7" value="&lt;div style=&quot;box-sizing: border-box ; width: 100% ; background: #e4e4e4 ; padding: 2px&quot;&gt;pbb_module(组件)&lt;/div&gt;&lt;table style=&quot;width: 100% ; font-size: 1em&quot; cellpadding=&quot;2&quot; cellspacing=&quot;0&quot;&gt;&lt;tbody&gt;&lt;tr&gt;&lt;td&gt;PK&lt;/td&gt;&lt;td&gt;module_id&lt;br&gt;&lt;/td&gt;&lt;/tr&gt;&lt;tr&gt;&lt;td&gt;FK1&lt;/td&gt;&lt;td&gt;pbb_simulation_id&lt;/td&gt;&lt;/tr&gt;&lt;tr&gt;&lt;td&gt;&lt;/td&gt;&lt;td&gt;.....&lt;/td&gt;&lt;/tr&gt;&lt;/tbody&gt;&lt;/table&gt;" style="verticalAlign=top;align=left;overflow=fill;html=1;" vertex="1" parent="fYrtVf4TbGVnYK6b-VUZ-6">
          <mxGeometry x="350" y="545" width="180" height="90" as="geometry" />
        </mxCell>
        <mxCell id="QcE3PReFvYjuMhEhEGov-20" style="edgeStyle=orthogonalEdgeStyle;rounded=0;orthogonalLoop=1;jettySize=auto;html=1;exitX=0.25;exitY=1;exitDx=0;exitDy=0;entryX=0.5;entryY=0;entryDx=0;entryDy=0;" edge="1" parent="fYrtVf4TbGVnYK6b-VUZ-6" source="QcE3PReFvYjuMhEhEGov-9" target="QcE3PReFvYjuMhEhEGov-5">
          <mxGeometry y="80" as="geometry" />
        </mxCell>
        <mxCell id="QcE3PReFvYjuMhEhEGov-21" style="edgeStyle=orthogonalEdgeStyle;rounded=0;orthogonalLoop=1;jettySize=auto;html=1;exitX=0.75;exitY=1;exitDx=0;exitDy=0;entryX=0.5;entryY=0;entryDx=0;entryDy=0;" edge="1" parent="fYrtVf4TbGVnYK6b-VUZ-6" source="QcE3PReFvYjuMhEhEGov-9" target="QcE3PReFvYjuMhEhEGov-7">
          <mxGeometry y="80" as="geometry" />
        </mxCell>
        <mxCell id="QcE3PReFvYjuMhEhEGov-9" value="&lt;div style=&quot;box-sizing: border-box ; width: 100% ; background: #e4e4e4 ; padding: 2px&quot;&gt;pbb_simulation(仿真数据表)&lt;/div&gt;&lt;table style=&quot;width: 100% ; font-size: 1em&quot; cellpadding=&quot;2&quot; cellspacing=&quot;0&quot;&gt;&lt;tbody&gt;&lt;tr&gt;&lt;td&gt;PK&lt;/td&gt;&lt;td&gt;simulation_id&lt;/td&gt;&lt;/tr&gt;&lt;tr&gt;&lt;td&gt;FK&lt;/td&gt;&lt;td&gt;pbb_station_id&lt;/td&gt;&lt;/tr&gt;&lt;tr&gt;&lt;td&gt;&lt;/td&gt;&lt;td&gt;.........&lt;/td&gt;&lt;/tr&gt;&lt;/tbody&gt;&lt;/table&gt;" style="verticalAlign=top;align=left;overflow=fill;html=1;" vertex="1" parent="fYrtVf4TbGVnYK6b-VUZ-6">
          <mxGeometry x="230" y="380" width="180" height="90" as="geometry" />
        </mxCell>
        <mxCell id="QcE3PReFvYjuMhEhEGov-11" value="&lt;div style=&quot;box-sizing: border-box ; width: 100% ; background: #e4e4e4 ; padding: 2px&quot;&gt;pbb_power_data(历年数据表)&lt;/div&gt;&lt;table style=&quot;width: 100% ; font-size: 1em&quot; cellpadding=&quot;2&quot; cellspacing=&quot;0&quot;&gt;&lt;tbody&gt;&lt;tr&gt;&lt;td&gt;PK&lt;/td&gt;&lt;td&gt;power_data_id&lt;br&gt;&lt;/td&gt;&lt;/tr&gt;&lt;tr&gt;&lt;td&gt;FK1&lt;/td&gt;&lt;td&gt;pbb_station_id&lt;/td&gt;&lt;/tr&gt;&lt;tr&gt;&lt;td&gt;&lt;/td&gt;&lt;td&gt;.....&lt;/td&gt;&lt;/tr&gt;&lt;/tbody&gt;&lt;/table&gt;" style="verticalAlign=top;align=left;overflow=fill;html=1;" vertex="1" parent="fYrtVf4TbGVnYK6b-VUZ-6">
          <mxGeometry x="20" y="380" width="180" height="90" as="geometry" />
        </mxCell>
        <mxCell id="QcE3PReFvYjuMhEhEGov-22" style="edgeStyle=orthogonalEdgeStyle;rounded=0;orthogonalLoop=1;jettySize=auto;html=1;exitX=0.25;exitY=1;exitDx=0;exitDy=0;" edge="1" parent="fYrtVf4TbGVnYK6b-VUZ-6" source="QcE3PReFvYjuMhEhEGov-3" target="QcE3PReFvYjuMhEhEGov-11">
          <mxGeometry y="80" as="geometry" />
        </mxCell>
        <mxCell id="QcE3PReFvYjuMhEhEGov-13" value="&lt;div style=&quot;box-sizing: border-box ; width: 100% ; background: #e4e4e4 ; padding: 2px&quot;&gt;pbb_dev_opt(运维数据表)&lt;/div&gt;&lt;table style=&quot;width: 100% ; font-size: 1em&quot; cellpadding=&quot;2&quot; cellspacing=&quot;0&quot;&gt;&lt;tbody&gt;&lt;tr&gt;&lt;td&gt;PK&lt;/td&gt;&lt;td&gt;pbb_dev_opt_id&lt;br&gt;&lt;/td&gt;&lt;/tr&gt;&lt;tr&gt;&lt;td&gt;FK1&lt;/td&gt;&lt;td&gt;pbb_station_id&lt;/td&gt;&lt;/tr&gt;&lt;tr&gt;&lt;td&gt;&lt;/td&gt;&lt;td&gt;......&lt;/td&gt;&lt;/tr&gt;&lt;/tbody&gt;&lt;/table&gt;" style="verticalAlign=top;align=left;overflow=fill;html=1;" vertex="1" parent="fYrtVf4TbGVnYK6b-VUZ-6">
          <mxGeometry x="440" y="380" width="180" height="90" as="geometry" />
        </mxCell>
        <mxCell id="QcE3PReFvYjuMhEhEGov-23" style="edgeStyle=orthogonalEdgeStyle;rounded=0;orthogonalLoop=1;jettySize=auto;html=1;exitX=0.75;exitY=1;exitDx=0;exitDy=0;entryX=0.5;entryY=0;entryDx=0;entryDy=0;" edge="1" parent="fYrtVf4TbGVnYK6b-VUZ-6" source="QcE3PReFvYjuMhEhEGov-3" target="QcE3PReFvYjuMhEhEGov-13">
          <mxGeometry y="80" as="geometry" />
        </mxCell>
        <mxCell id="QcE3PReFvYjuMhEhEGov-15" value="&lt;div style=&quot;box-sizing: border-box ; width: 100% ; background: #e4e4e4 ; padding: 2px&quot;&gt;pbb_modules_dict(组件字典表)&lt;/div&gt;&lt;table style=&quot;width: 100% ; font-size: 1em&quot; cellpadding=&quot;2&quot; cellspacing=&quot;0&quot;&gt;&lt;tbody&gt;&lt;tr&gt;&lt;td&gt;PK&lt;/td&gt;&lt;td&gt;id&lt;br&gt;&lt;/td&gt;&lt;/tr&gt;&lt;tr&gt;&lt;td&gt;&lt;br&gt;&lt;/td&gt;&lt;td&gt;全名(厂家:型号)&lt;/td&gt;&lt;/tr&gt;&lt;tr&gt;&lt;td&gt;&lt;/td&gt;&lt;td&gt;厂家&lt;/td&gt;&lt;/tr&gt;&lt;/tbody&gt;&lt;/table&gt;&amp;nbsp; &amp;nbsp; &amp;nbsp; &amp;nbsp; &amp;nbsp; &amp;nbsp;型号" style="verticalAlign=top;align=left;overflow=fill;html=1;" vertex="1" parent="fYrtVf4TbGVnYK6b-VUZ-6">
          <mxGeometry width="180" height="90" as="geometry" />
        </mxCell>
        <mxCell id="QcE3PReFvYjuMhEhEGov-17" value="&lt;div style=&quot;box-sizing: border-box ; width: 100% ; background: #e4e4e4 ; padding: 2px&quot;&gt;pbb_inverters_dict(逆变器字典表)&lt;/div&gt;&lt;table style=&quot;width: 100% ; font-size: 1em&quot; cellpadding=&quot;2&quot; cellspacing=&quot;0&quot;&gt;&lt;tbody&gt;&lt;tr&gt;&lt;td&gt;&lt;table cellpadding=&quot;2&quot; cellspacing=&quot;0&quot; style=&quot;font-size: 1em ; width: 180px&quot;&gt;&lt;tbody&gt;&lt;tr&gt;&lt;td&gt;PK&lt;/td&gt;&lt;td&gt;id&lt;br&gt;&lt;/td&gt;&lt;/tr&gt;&lt;tr&gt;&lt;td&gt;&lt;br&gt;&lt;/td&gt;&lt;td&gt;全名(厂家:型号)&lt;/td&gt;&lt;/tr&gt;&lt;tr&gt;&lt;td&gt;&lt;/td&gt;&lt;td&gt;厂家&lt;/td&gt;&lt;/tr&gt;&lt;/tbody&gt;&lt;/table&gt;&amp;nbsp; &amp;nbsp; &amp;nbsp; &amp;nbsp; &amp;nbsp; &amp;nbsp;型号&lt;br&gt;&lt;/td&gt;&lt;td&gt;&lt;/td&gt;&lt;/tr&gt;&lt;/tbody&gt;&lt;/table&gt;" style="verticalAlign=top;align=left;overflow=fill;html=1;" vertex="1" parent="fYrtVf4TbGVnYK6b-VUZ-6">
          <mxGeometry x="470" width="180" height="90" as="geometry" />
        </mxCell>
        <mxCell id="fYrtVf4TbGVnYK6b-VUZ-0" value="has" style="endArrow=open;html=1;endSize=12;startArrow=diamondThin;startSize=14;startFill=0;edgeStyle=orthogonalEdgeStyle;exitX=0.5;exitY=0;exitDx=0;exitDy=0;entryX=0.5;entryY=1;entryDx=0;entryDy=0;" edge="1" parent="fYrtVf4TbGVnYK6b-VUZ-6" source="QcE3PReFvYjuMhEhEGov-9" target="QcE3PReFvYjuMhEhEGov-3">
          <mxGeometry relative="1" as="geometry">
            <mxPoint x="210" y="720" as="sourcePoint" />
            <mxPoint x="330" y="330" as="targetPoint" />
          </mxGeometry>
        </mxCell>
        <mxCell id="fYrtVf4TbGVnYK6b-VUZ-1" value="0..n" style="edgeLabel;resizable=0;html=1;align=left;verticalAlign=top;" connectable="0" vertex="1" parent="fYrtVf4TbGVnYK6b-VUZ-0">
          <mxGeometry x="-1" relative="1" as="geometry" />
        </mxCell>
        <mxCell id="fYrtVf4TbGVnYK6b-VUZ-2" value="1" style="edgeLabel;resizable=0;html=1;align=right;verticalAlign=top;" connectable="0" vertex="1" parent="fYrtVf4TbGVnYK6b-VUZ-0">
          <mxGeometry x="1" relative="1" as="geometry" />
        </mxCell>
        <mxCell id="5_4ReWDbrNegOjtZnyhO-3" style="edgeStyle=orthogonalEdgeStyle;rounded=0;orthogonalLoop=1;jettySize=auto;html=1;" edge="1" parent="fYrtVf4TbGVnYK6b-VUZ-6" source="5_4ReWDbrNegOjtZnyhO-0">
          <mxGeometry relative="1" as="geometry">
            <mxPoint x="410" y="230" as="targetPoint" />
          </mxGeometry>
        </mxCell>
        <mxCell id="5_4ReWDbrNegOjtZnyhO-0" value="pbb_station电站信息表,包含了&lt;br&gt;1.历年发电量数据&lt;br&gt;2.仿真模拟需要的相关参数&lt;br&gt;3.电站运维的相关数据" style="shape=note;strokeWidth=2;fontSize=14;size=20;whiteSpace=wrap;html=1;fillColor=#fff2cc;strokeColor=#d6b656;fontColor=#666600;align=left;" vertex="1" parent="fYrtVf4TbGVnYK6b-VUZ-6">
          <mxGeometry x="490" y="170" width="180" height="120" as="geometry" />
        </mxCell>
        <mxCell id="5_4ReWDbrNegOjtZnyhO-2" style="edgeStyle=orthogonalEdgeStyle;rounded=0;orthogonalLoop=1;jettySize=auto;html=1;exitX=0;exitY=0;exitDx=155;exitDy=10;exitPerimeter=0;entryX=0;entryY=1;entryDx=0;entryDy=0;" edge="1" parent="fYrtVf4TbGVnYK6b-VUZ-6" source="5_4ReWDbrNegOjtZnyhO-1" target="QcE3PReFvYjuMhEhEGov-2">
          <mxGeometry relative="1" as="geometry" />
        </mxCell>
        <mxCell id="5_4ReWDbrNegOjtZnyhO-1" value="pbb_log电站采集记录表,收集人员使用的电话作为唯一表示,一个电话可以对应多个电站收集信息,同时收集表单的状态管理(新建,未审批,驳回等)" style="shape=note;strokeWidth=2;fontSize=14;size=20;whiteSpace=wrap;html=1;fillColor=#fff2cc;strokeColor=#d6b656;fontColor=#666600;align=left;" vertex="1" parent="fYrtVf4TbGVnYK6b-VUZ-6">
          <mxGeometry x="35" y="140" width="165" height="150" as="geometry" />
        </mxCell>
        <mxCell id="5_4ReWDbrNegOjtZnyhO-4" value="仿真模拟参数表&lt;br&gt;1.每个电站对应多个参数配置&lt;br&gt;2.仿真参数包含,组件,逆变器,组串,支架,并网等参数" style="shape=note;strokeWidth=2;fontSize=14;size=20;whiteSpace=wrap;html=1;fillColor=#fff2cc;strokeColor=#d6b656;fontColor=#666600;align=left;" vertex="1" parent="fYrtVf4TbGVnYK6b-VUZ-6">
          <mxGeometry x="570" y="500" width="120" height="130" as="geometry" />
        </mxCell>
        <mxCell id="5_4ReWDbrNegOjtZnyhO-8" style="rounded=0;orthogonalLoop=1;jettySize=auto;html=1;" edge="1" parent="QcE3PReFvYjuMhEhEGov-1" source="5_4ReWDbrNegOjtZnyhO-5" target="QcE3PReFvYjuMhEhEGov-15">
          <mxGeometry relative="1" as="geometry">
            <mxPoint x="110" y="100" as="targetPoint" />
          </mxGeometry>
        </mxCell>
        <mxCell id="5_4ReWDbrNegOjtZnyhO-9" style="edgeStyle=none;rounded=0;orthogonalLoop=1;jettySize=auto;html=1;exitX=1;exitY=1;exitDx=0;exitDy=0;exitPerimeter=0;entryX=0.053;entryY=0.02;entryDx=0;entryDy=0;entryPerimeter=0;" edge="1" parent="QcE3PReFvYjuMhEhEGov-1" source="5_4ReWDbrNegOjtZnyhO-5" target="QcE3PReFvYjuMhEhEGov-17">
          <mxGeometry relative="1" as="geometry" />
        </mxCell>
        <mxCell id="5_4ReWDbrNegOjtZnyhO-5" value="组件和逆变器字典表主要包含历史组件和逆变器数据,用于填写表单时,根据厂家或型号进行检索" style="shape=note;strokeWidth=2;fontSize=14;size=20;whiteSpace=wrap;html=1;fillColor=#fff2cc;strokeColor=#d6b656;fontColor=#666600;" vertex="1" parent="QcE3PReFvYjuMhEhEGov-1">
          <mxGeometry x="130" y="20" width="310" height="70" as="geometry" />
        </mxCell>
        <mxCell id="5_4ReWDbrNegOjtZnyhO-10" style="edgeStyle=none;rounded=0;orthogonalLoop=1;jettySize=auto;html=1;exitX=0;exitY=0;exitDx=0;exitDy=0;exitPerimeter=0;" edge="1" parent="QcE3PReFvYjuMhEhEGov-1" source="5_4ReWDbrNegOjtZnyhO-4">
          <mxGeometry relative="1" as="geometry">
            <mxPoint x="510" y="590" as="targetPoint" />
          </mxGeometry>
        </mxCell>
      </root>
    </mxGraphModel>
  </diagram>
  <diagram id="cw2ZYst2s0e0fRTmJB1K" name="静态包结构">
    <mxGraphModel dx="1070" dy="712" grid="1" gridSize="10" guides="1" tooltips="1" connect="1" arrows="1" fold="1" page="1" pageScale="1" pageWidth="827" pageHeight="1169" math="0" shadow="0">
      <root>
        <mxCell id="PM_1ZX3SRBFLgxQR2d_T-0" />
        <mxCell id="PM_1ZX3SRBFLgxQR2d_T-1" parent="PM_1ZX3SRBFLgxQR2d_T-0" />
        <mxCell id="Gx4oJtcIwf23V2wpAJHi-36" value="" style="group" vertex="1" connectable="0" parent="PM_1ZX3SRBFLgxQR2d_T-1">
          <mxGeometry x="290" y="390" width="660" height="620" as="geometry" />
        </mxCell>
        <mxCell id="Gx4oJtcIwf23V2wpAJHi-33" value="Package1" style="shape=folder;fontStyle=1;tabWidth=110;tabHeight=30;tabPosition=left;html=1;boundedLbl=1;labelInHeader=1;container=0;collapsible=0;recursiveResize=0;" vertex="1" parent="Gx4oJtcIwf23V2wpAJHi-36">
          <mxGeometry width="490" height="250" as="geometry" />
        </mxCell>
        <mxCell id="YwVxQnR9og7hI8JVoDPN-0" value="com.sungrow.pbb.security" style="shape=folder;fontStyle=1;spacingTop=10;tabWidth=40;tabHeight=14;tabPosition=left;html=1;align=center;" vertex="1" parent="Gx4oJtcIwf23V2wpAJHi-36">
          <mxGeometry x="280" y="60" width="155" height="50" as="geometry" />
        </mxCell>
        <mxCell id="Gx4oJtcIwf23V2wpAJHi-1" value="登录" style="shape=folder;fontStyle=1;spacingTop=10;tabWidth=40;tabHeight=14;tabPosition=left;html=1;align=center;" vertex="1" parent="Gx4oJtcIwf23V2wpAJHi-36">
          <mxGeometry x="75" y="60" width="100" height="40" as="geometry" />
        </mxCell>
        <mxCell id="Gx4oJtcIwf23V2wpAJHi-7" value="" style="edgeStyle=none;rounded=0;orthogonalLoop=1;jettySize=auto;html=1;exitX=0.25;exitY=1;exitDx=0;exitDy=0;exitPerimeter=0;entryX=0;entryY=0;entryDx=57.5;entryDy=14;entryPerimeter=0;" edge="1" parent="Gx4oJtcIwf23V2wpAJHi-36" source="YwVxQnR9og7hI8JVoDPN-0" target="Gx4oJtcIwf23V2wpAJHi-6">
          <mxGeometry y="-10" as="geometry" />
        </mxCell>
        <mxCell id="Gx4oJtcIwf23V2wpAJHi-2" value="URL访问控制" style="shape=folder;fontStyle=1;spacingTop=10;tabWidth=40;tabHeight=14;tabPosition=left;html=1;align=center;" vertex="1" parent="Gx4oJtcIwf23V2wpAJHi-36">
          <mxGeometry x="365" y="165" width="95" height="50" as="geometry" />
        </mxCell>
        <mxCell id="Gx4oJtcIwf23V2wpAJHi-3" value="" style="edgeStyle=none;rounded=0;orthogonalLoop=1;jettySize=auto;html=1;entryX=0;entryY=0;entryDx=67.5;entryDy=14;entryPerimeter=0;" edge="1" parent="Gx4oJtcIwf23V2wpAJHi-36" source="YwVxQnR9og7hI8JVoDPN-0" target="Gx4oJtcIwf23V2wpAJHi-2">
          <mxGeometry y="-10" as="geometry" />
        </mxCell>
        <mxCell id="Gx4oJtcIwf23V2wpAJHi-4" value="&lt;pre style=&quot;font-family: &amp;#34;consolas&amp;#34; ; font-size: 8.4pt&quot;&gt;&lt;span style=&quot;background-color: rgb(255 , 255 , 255)&quot;&gt;weixin-java-miniapp:3.9.0&lt;/span&gt;&lt;/pre&gt;" style="shape=folder;fontStyle=1;spacingTop=10;tabWidth=40;tabHeight=14;tabPosition=left;html=1;align=center;" vertex="1" parent="Gx4oJtcIwf23V2wpAJHi-36">
          <mxGeometry x="40" y="172.5" width="170" height="40" as="geometry" />
        </mxCell>
        <mxCell id="Gx4oJtcIwf23V2wpAJHi-5" value="" style="edgeStyle=none;rounded=0;orthogonalLoop=1;jettySize=auto;html=1;entryX=0.482;entryY=0.295;entryDx=0;entryDy=0;entryPerimeter=0;" edge="1" parent="Gx4oJtcIwf23V2wpAJHi-36" source="Gx4oJtcIwf23V2wpAJHi-1" target="Gx4oJtcIwf23V2wpAJHi-4">
          <mxGeometry y="-10" as="geometry" />
        </mxCell>
        <mxCell id="Gx4oJtcIwf23V2wpAJHi-6" value="Token管理" style="shape=folder;fontStyle=1;spacingTop=10;tabWidth=40;tabHeight=14;tabPosition=left;html=1;align=center;" vertex="1" parent="Gx4oJtcIwf23V2wpAJHi-36">
          <mxGeometry x="270" y="165" width="75" height="55" as="geometry" />
        </mxCell>
        <mxCell id="Gx4oJtcIwf23V2wpAJHi-11" style="edgeStyle=none;rounded=0;orthogonalLoop=1;jettySize=auto;html=1;exitX=0;exitY=0;exitDx=100;exitDy=40;exitPerimeter=0;entryX=0;entryY=0;entryDx=0;entryDy=32;entryPerimeter=0;" edge="1" parent="Gx4oJtcIwf23V2wpAJHi-36" source="Gx4oJtcIwf23V2wpAJHi-1" target="Gx4oJtcIwf23V2wpAJHi-6">
          <mxGeometry relative="1" as="geometry" />
        </mxCell>
        <mxCell id="Gx4oJtcIwf23V2wpAJHi-35" value="frame" style="shape=umlFrame;whiteSpace=wrap;html=1;" vertex="1" parent="Gx4oJtcIwf23V2wpAJHi-36">
          <mxGeometry x="-120" y="-30" width="690" height="590" as="geometry" />
        </mxCell>
        <mxCell id="Gx4oJtcIwf23V2wpAJHi-37" value="" style="group" vertex="1" connectable="0" parent="PM_1ZX3SRBFLgxQR2d_T-1">
          <mxGeometry x="300" y="670" width="480" height="240" as="geometry" />
        </mxCell>
        <mxCell id="YwVxQnR9og7hI8JVoDPN-23" value="Package1" style="shape=folder;fontStyle=1;tabWidth=110;tabHeight=30;tabPosition=left;html=1;boundedLbl=1;labelInHeader=1;container=0;collapsible=0;recursiveResize=0;" vertex="1" parent="Gx4oJtcIwf23V2wpAJHi-37">
          <mxGeometry x="-5.581395348837209" y="-9.6" width="479.99999999999994" height="240" as="geometry" />
        </mxCell>
        <mxCell id="Gx4oJtcIwf23V2wpAJHi-15" value="文件上传" style="shape=folder;fontStyle=1;spacingTop=10;tabWidth=40;tabHeight=14;tabPosition=left;html=1;" vertex="1" parent="Gx4oJtcIwf23V2wpAJHi-37">
          <mxGeometry x="145.11627906976742" y="62.4" width="78.13953488372093" height="48" as="geometry" />
        </mxCell>
        <mxCell id="Gx4oJtcIwf23V2wpAJHi-16" value="采集记录管理" style="shape=folder;fontStyle=1;spacingTop=10;tabWidth=40;tabHeight=14;tabPosition=left;html=1;" vertex="1" parent="Gx4oJtcIwf23V2wpAJHi-37">
          <mxGeometry x="22.325581395348834" y="62.4" width="78.13953488372093" height="48" as="geometry" />
        </mxCell>
        <mxCell id="Gx4oJtcIwf23V2wpAJHi-18" value="电站信息收集管理" style="shape=folder;fontStyle=1;spacingTop=10;tabWidth=40;tabHeight=14;tabPosition=left;html=1;" vertex="1" parent="Gx4oJtcIwf23V2wpAJHi-37">
          <mxGeometry x="267.906976744186" y="62.4" width="122.79069767441858" height="52.8" as="geometry" />
        </mxCell>
        <mxCell id="Gx4oJtcIwf23V2wpAJHi-20" value="«interface»&lt;br&gt;&lt;b&gt;PbbLogController&lt;/b&gt;" style="html=1;" vertex="1" parent="Gx4oJtcIwf23V2wpAJHi-37">
          <mxGeometry x="22.325581395348834" y="163.2" width="122.79069767441858" height="48" as="geometry" />
        </mxCell>
        <mxCell id="Gx4oJtcIwf23V2wpAJHi-21" value="«interface»&lt;br&gt;&lt;b&gt;PbbStatonController&lt;/b&gt;" style="html=1;" vertex="1" parent="Gx4oJtcIwf23V2wpAJHi-37">
          <mxGeometry x="323.72093023255815" y="163.2" width="145.11627906976742" height="48" as="geometry" />
        </mxCell>
        <mxCell id="Gx4oJtcIwf23V2wpAJHi-27" value="«class»&lt;br&gt;&lt;b&gt;FileUploadDownload&lt;/b&gt;" style="html=1;" vertex="1" parent="Gx4oJtcIwf23V2wpAJHi-37">
          <mxGeometry x="167.44186046511624" y="163.2" width="133.953488372093" height="48" as="geometry" />
        </mxCell>
        <mxCell id="Gx4oJtcIwf23V2wpAJHi-29" value="" style="endArrow=open;startArrow=circlePlus;endFill=0;startFill=0;endSize=8;html=1;entryX=0.5;entryY=0;entryDx=0;entryDy=0;exitX=0.5;exitY=1;exitDx=0;exitDy=0;exitPerimeter=0;" edge="1" parent="Gx4oJtcIwf23V2wpAJHi-37" source="Gx4oJtcIwf23V2wpAJHi-16" target="Gx4oJtcIwf23V2wpAJHi-20">
          <mxGeometry width="160" relative="1" as="geometry">
            <mxPoint x="55.813953488372086" y="115.19999999999999" as="sourcePoint" />
            <mxPoint x="234.41860465116275" y="124.8" as="targetPoint" />
          </mxGeometry>
        </mxCell>
        <mxCell id="Gx4oJtcIwf23V2wpAJHi-30" value="" style="endArrow=open;startArrow=circlePlus;endFill=0;startFill=0;endSize=8;html=1;entryX=0.5;entryY=0;entryDx=0;entryDy=0;exitX=0.5;exitY=1;exitDx=0;exitDy=0;exitPerimeter=0;" edge="1" parent="Gx4oJtcIwf23V2wpAJHi-37" source="Gx4oJtcIwf23V2wpAJHi-15" target="Gx4oJtcIwf23V2wpAJHi-27">
          <mxGeometry width="160" relative="1" as="geometry">
            <mxPoint x="72.55813953488371" y="120" as="sourcePoint" />
            <mxPoint x="94.88372093023254" y="172.79999999999998" as="targetPoint" />
            <Array as="points" />
          </mxGeometry>
        </mxCell>
        <mxCell id="Gx4oJtcIwf23V2wpAJHi-32" value="" style="endArrow=open;startArrow=circlePlus;endFill=0;startFill=0;endSize=8;html=1;exitX=0.5;exitY=1;exitDx=0;exitDy=0;exitPerimeter=0;entryX=0.5;entryY=0;entryDx=0;entryDy=0;" edge="1" parent="Gx4oJtcIwf23V2wpAJHi-37" source="Gx4oJtcIwf23V2wpAJHi-18" target="Gx4oJtcIwf23V2wpAJHi-21">
          <mxGeometry width="160" relative="1" as="geometry">
            <mxPoint x="312.5581395348837" y="134.4" as="sourcePoint" />
            <mxPoint x="491.1627906976743" y="134.4" as="targetPoint" />
          </mxGeometry>
        </mxCell>
      </root>
    </mxGraphModel>
  </diagram>
</mxfile>
